<?xml version="1.0" encoding="UTF-8" standalone="no"?>
<!-- Created with Inkscape (http://www.inkscape.org/) -->

<svg
   xmlns:dc="http://purl.org/dc/elements/1.1/"
   xmlns:cc="http://creativecommons.org/ns#"
   xmlns:rdf="http://www.w3.org/1999/02/22-rdf-syntax-ns#"
   xmlns:svg="http://www.w3.org/2000/svg"
   xmlns="http://www.w3.org/2000/svg"
   xmlns:sodipodi="http://sodipodi.sourceforge.net/DTD/sodipodi-0.dtd"
   xmlns:inkscape="http://www.inkscape.org/namespaces/inkscape"
   id="svg2"
   version="1.1"
   inkscape:version="0.48.3.1 r9886"
   width="320"
   height="320"
   sodipodi:docname="thumb_COLOURBOX3856177.jpg.svg">
  <metadata
     id="metadata8">
    <rdf:RDF>
      <cc:Work
         rdf:about="">
        <dc:format>image/svg+xml</dc:format>
        <dc:type
           rdf:resource="http://purl.org/dc/dcmitype/StillImage" />
        <dc:title></dc:title>
      </cc:Work>
    </rdf:RDF>
  </metadata>
  <defs
     id="defs6" />
  <sodipodi:namedview
     pagecolor="#ffffff"
     bordercolor="#666666"
     borderopacity="1"
     objecttolerance="10"
     gridtolerance="10"
     guidetolerance="10"
     inkscape:pageopacity="0"
     inkscape:pageshadow="2"
     inkscape:window-width="1680"
     inkscape:window-height="1026"
     id="namedview4"
     showgrid="false"
     inkscape:zoom="1.475"
     inkscape:cx="270.02502"
     inkscape:cy="128.87505"
     inkscape:window-x="0"
     inkscape:window-y="24"
     inkscape:window-maximized="1"
     inkscape:current-layer="svg2" />
  <rect
     style="fill:#460032;fill-opacity:0.94520545;stroke:none"
     id="rect3826"
     width="294.18088"
     height="302.74918"
     x="15.621419"
     y="8.6254225"
     ry="33.901535" />
  <path
     style="fill:#ffffff;fill-opacity:1;stroke:none"
     d="m 93.672857,291.35311 c 0.107661,-0.31514 10.875783,-30.44229 23.929153,-66.9492 13.05339,-36.50692 23.73344,-66.54636 23.73344,-66.75431 0,-0.24666 -12.11773,-0.38013 -34.85741,-0.38394 -19.171563,-0.003 -35.07968,-0.14688 -35.351368,-0.31923 -0.360827,-0.22891 10.747147,-17.15317 41.209308,-62.787057 l 41.70328,-62.473684 32.13448,-0.266101 c 17.67396,-0.146353 34.40326,-0.209986 37.17621,-0.141412 l 5.04173,0.124698 -28.8605,43.667698 c -15.87328,24.017231 -28.77927,43.748918 -28.68,43.848208 0.0993,0.0992 15.34675,-0.009 33.88327,-0.24197 18.53653,-0.23236 33.78703,-0.33821 33.89002,-0.23522 0.1547,0.1547 -142.786412,171.10857 -144.577973,172.91152 -0.506119,0.50934 -0.547632,0.50934 -0.37364,0 l 0,0 z"
     id="path4274"
     inkscape:connector-curvature="0" />
</svg>
