<?xml version="1.0" encoding="UTF-8" standalone="no"?>
<!-- Created with Inkscape (http://www.inkscape.org/) -->

<svg
   xmlns:dc="http://purl.org/dc/elements/1.1/"
   xmlns:cc="http://creativecommons.org/ns#"
   xmlns:rdf="http://www.w3.org/1999/02/22-rdf-syntax-ns#"
   xmlns:svg="http://www.w3.org/2000/svg"
   xmlns="http://www.w3.org/2000/svg"
   xmlns:xlink="http://www.w3.org/1999/xlink"
   xmlns:sodipodi="http://sodipodi.sourceforge.net/DTD/sodipodi-0.dtd"
   xmlns:inkscape="http://www.inkscape.org/namespaces/inkscape"
   id="svg3416"
   version="1.1"
   inkscape:version="0.48.3.1 r9886"
   width="350"
   height="315"
   sodipodi:docname="pictogram_broad.svg">
  <metadata
     id="metadata3422">
    <rdf:RDF>
      <cc:Work
         rdf:about="">
        <dc:format>image/svg+xml</dc:format>
        <dc:type
           rdf:resource="http://purl.org/dc/dcmitype/StillImage" />
        <dc:title></dc:title>
      </cc:Work>
    </rdf:RDF>
  </metadata>
  <defs
     id="defs3420">
    <linearGradient
       y2="114.86218"
       x2="1256.5"
       y1="213.86218"
       x1="1174.5"
       gradientTransform="matrix(-0.94715721,0,0,0.94715721,2711.41,-605.91415)"
       gradientUnits="userSpaceOnUse"
       id="linearGradient3185"
       xlink:href="#linearGradient3788"
       inkscape:collect="always" />
    <linearGradient
       y2="114.86218"
       x2="1256.5"
       y1="213.86218"
       x1="1174.5"
       gradientTransform="matrix(0.75614395,0,0,0.75614395,-316.07951,336.08305)"
       gradientUnits="userSpaceOnUse"
       id="linearGradient3183"
       xlink:href="#linearGradient3788"
       inkscape:collect="always" />
    <linearGradient
       y2="-238.81479"
       x2="1899.2887"
       y1="223.63304"
       x1="1960.1001"
       gradientTransform="matrix(0.60502905,0,0,0.60502905,-736.79898,244.71726)"
       gradientUnits="userSpaceOnUse"
       id="linearGradient3174"
       xlink:href="#linearGradient3886"
       inkscape:collect="always" />
    <linearGradient
       y2="-238.81479"
       x2="1899.2887"
       y1="223.63304"
       x1="1960.1001"
       gradientTransform="translate(3971.29,-52.510491)"
       gradientUnits="userSpaceOnUse"
       id="linearGradient3962"
       xlink:href="#linearGradient3886"
       inkscape:collect="always" />
    <linearGradient
       y2="114.86218"
       x2="1256.5"
       y1="213.86218"
       x1="1174.5"
       gradientTransform="matrix(-0.94715721,0,0,0.94715721,2711.41,-605.91415)"
       gradientUnits="userSpaceOnUse"
       id="linearGradient3960"
       xlink:href="#linearGradient3788"
       inkscape:collect="always" />
    <linearGradient
       y2="114.86218"
       x2="1256.5"
       y1="213.86218"
       x1="1174.5"
       gradientTransform="matrix(1.2497647,0,0,1.2497647,4666.6607,98.500105)"
       gradientUnits="userSpaceOnUse"
       id="linearGradient3958"
       xlink:href="#linearGradient3788"
       inkscape:collect="always" />
    <linearGradient
       id="linearGradient5504">
      <stop
         style="stop-color:#460032;stop-opacity:1;"
         offset="0"
         id="stop5506" />
      <stop
         id="stop5512"
         offset="1"
         style="stop-color:#460032;stop-opacity:0.66666669;" />
    </linearGradient>
    <linearGradient
       inkscape:collect="always"
       xlink:href="#linearGradient5504"
       id="linearGradient5510"
       x1="810.27545"
       y1="337.02417"
       x2="824.00092"
       y2="1131.1418"
       gradientUnits="userSpaceOnUse"
       gradientTransform="matrix(0.87997349,0,0,0.87997349,99.43519,62.173162)" />
    <linearGradient
       gradientTransform="translate(3971.29,-52.510491)"
       gradientUnits="userSpaceOnUse"
       y2="-238.81479"
       x2="1899.2887"
       y1="223.63304"
       x1="1960.1001"
       id="linearGradient3892"
       xlink:href="#linearGradient3886"
       inkscape:collect="always" />
    <linearGradient
       y2="114.86218"
       x2="1256.5"
       y1="213.86218"
       x1="1174.5"
       gradientTransform="matrix(1.2497647,0,0,1.2497647,4666.6607,98.500105)"
       gradientUnits="userSpaceOnUse"
       id="linearGradient3884"
       xlink:href="#linearGradient3788"
       inkscape:collect="always" />
    <linearGradient
       y2="114.86218"
       x2="1256.5"
       y1="213.86218"
       x1="1174.5"
       gradientTransform="matrix(1.2497647,0,0,1.2497647,871.37059,-735.98938)"
       gradientUnits="userSpaceOnUse"
       id="linearGradient3879"
       xlink:href="#linearGradient3788"
       inkscape:collect="always" />
    <linearGradient
       y2="114.86218"
       x2="1256.5"
       y1="213.86218"
       x1="1174.5"
       gradientTransform="matrix(1.2497647,0,0,1.2497647,871.37059,-735.98938)"
       gradientUnits="userSpaceOnUse"
       id="linearGradient3866"
       xlink:href="#linearGradient3788"
       inkscape:collect="always" />
    <linearGradient
       y2="114.86218"
       x2="1256.5"
       y1="213.86218"
       x1="1174.5"
       gradientTransform="matrix(1.2497647,0,0,1.2497647,871.37059,-735.98938)"
       gradientUnits="userSpaceOnUse"
       id="linearGradient3863"
       xlink:href="#linearGradient3788"
       inkscape:collect="always" />
    <linearGradient
       y2="114.86218"
       x2="1256.5"
       y1="213.86218"
       x1="1174.5"
       gradientTransform="matrix(1.2497647,0,0,1.2497647,871.37059,-735.98938)"
       gradientUnits="userSpaceOnUse"
       id="linearGradient3848"
       xlink:href="#linearGradient3788"
       inkscape:collect="always" />
    <linearGradient
       y2="114.86218"
       x2="1256.5"
       y1="213.86218"
       x1="1174.5"
       gradientTransform="matrix(-0.94715721,0,0,0.94715721,2711.41,-605.91415)"
       gradientUnits="userSpaceOnUse"
       id="linearGradient3846"
       xlink:href="#linearGradient3788"
       inkscape:collect="always" />
    <linearGradient
       y2="114.86218"
       x2="1256.5"
       y1="213.86218"
       x1="1174.5"
       gradientTransform="matrix(-0.94715721,0,0,0.94715721,2711.41,-605.91415)"
       gradientUnits="userSpaceOnUse"
       id="linearGradient3834"
       xlink:href="#linearGradient3788"
       inkscape:collect="always" />
    <linearGradient
       gradientTransform="matrix(1.2497647,0,0,1.2497647,871.37059,-735.98938)"
       gradientUnits="userSpaceOnUse"
       y2="114.86218"
       x2="1256.5"
       y1="213.86218"
       x1="1174.5"
       id="linearGradient3794"
       xlink:href="#linearGradient3788"
       inkscape:collect="always" />
    <linearGradient
       id="linearGradient3788"
       inkscape:collect="always">
      <stop
         id="stop3790"
         offset="0"
         style="stop-color:#5252d3;stop-opacity:1;" />
      <stop
         id="stop3792"
         offset="1"
         style="stop-color:#5252d3;stop-opacity:0;" />
    </linearGradient>
    <linearGradient
       id="linearGradient3886"
       inkscape:collect="always">
      <stop
         id="stop3888"
         offset="0"
         style="stop-color:#5252d3;stop-opacity:1;" />
      <stop
         id="stop3890"
         offset="1"
         style="stop-color:#5252d3;stop-opacity:0;" />
    </linearGradient>
    <linearGradient
       id="linearGradient3932">
      <stop
         id="stop3934"
         offset="0"
         style="stop-color:#3b002a;stop-opacity:1;" />
      <stop
         id="stop3936"
         offset="1"
         style="stop-color:#3b002a;stop-opacity:0;" />
    </linearGradient>
  </defs>
  <sodipodi:namedview
     pagecolor="#ffffff"
     bordercolor="#666666"
     borderopacity="1"
     objecttolerance="10"
     gridtolerance="10"
     guidetolerance="10"
     inkscape:pageopacity="0"
     inkscape:pageshadow="2"
     inkscape:window-width="1680"
     inkscape:window-height="1026"
     id="namedview3418"
     showgrid="false"
     inkscape:zoom="1.28"
     inkscape:cx="225.94385"
     inkscape:cy="159.86054"
     inkscape:window-x="0"
     inkscape:window-y="24"
     inkscape:window-maximized="1"
     inkscape:current-layer="svg3416" />
  <path
     sodipodi:type="arc"
     style="fill:none;stroke:#ffffff;stroke-width:3693304761876118772812804521984;stroke-miterlimit:4;stroke-opacity:1;stroke-dasharray:none"
     id="path4196"
     sodipodi:cx="218.39876"
     sodipodi:cy="231.41528"
     sodipodi:rx="2.8822315"
     sodipodi:ry="2.8822315"
     d="m 221.28099,231.41528 a 2.8822315,2.8822315 0 1 1 -5.76446,0 2.8822315,2.8822315 0 1 1 5.76446,0 z"
     transform="matrix(-0.56640289,0,0,-0.56640289,337.8603,301.213)" />
  <path
     transform="matrix(-0.56640289,0,0,-0.56640289,266.31728,270.14759)"
     d="m 221.28099,231.41528 a 2.8822315,2.8822315 0 1 1 -5.76446,0 2.8822315,2.8822315 0 1 1 5.76446,0 z"
     sodipodi:ry="2.8822315"
     sodipodi:rx="2.8822315"
     sodipodi:cy="231.41528"
     sodipodi:cx="218.39876"
     id="path4198"
     style="fill:none;stroke:#ffffff;stroke-width:3693304761876118772812804521984;stroke-miterlimit:4;stroke-opacity:1;stroke-dasharray:none"
     sodipodi:type="arc" />
  <g
     transform="translate(-210.69984,-350.26083)"
     id="g3852">
    <rect
       ry="0"
       y="354.75522"
       x="237.09454"
       height="303.82373"
       width="295.6481"
       id="rect3826-5"
       style="fill:#460032;fill-opacity:0.94520545;stroke:none" />
    <path
       d="m 389.88754,395.6395 c -18.43567,-0.8222 -48.2229,8.99328 -59.5781,17.23891 -4.01607,4.85361 6.97789,26.10001 6.63427,28.89873 -4.03635,1.88411 -13.68164,13.1168 -14.76561,16.09399 -1.08403,2.97723 -23.07311,-10.0545 -28.38788,-8.03211 -9.72361,15.41124 -18.01996,46.03929 -16.77936,60.09429 2.09124,5.9592 26.19965,5.54319 26.80794,8.91013 -0.45193,4.46202 5.24917,19.88395 7.2356,22.34284 1.98639,2.45894 -18.53767,14.14996 -19.04121,19.1318 8.67185,16.38773 30.63982,36.53517 43.3968,42.33324 6.17597,1.08252 17.0822,-20.31681 20.29062,-19.20131 3.6354,2.58415 20.27835,6.15192 23.37736,5.61093 3.099,-0.54088 2.6347,24.62254 8.12081,28.3745 19.19382,0.81694 45.95556,-10.09343 57.36678,-18.25988 4.04917,-4.8256 -9.58171,-23.95374 -7.005,-26.18092 4.04916,-1.85603 15.45837,-14.11381 16.56268,-17.08342 1.10427,-2.96968 21.54233,9.83141 27.47937,7.62781 10.28252,-15.6615 16.65346,-46.10839 15.36982,-60.15947 -2.1095,-5.95266 -25.66836,-4.90722 -26.28693,-8.2722 0.43829,-4.46346 -4.75401,-19.87337 -6.74799,-22.32604 -1.99391,-2.45269 18.24881,-13.59591 19.22826,-19.16549 -8.46661,-16.06811 -30.10505,-38.58448 -42.8322,-44.44903 -6.17035,-1.11473 -17.7259,20.78622 -20.92857,19.65398 -3.6221,-2.60308 -19.14998,-5.71679 -22.25174,-5.19206 -3.10173,0.52476 -2.56135,-24.07962 -7.26572,-27.98922 z m 0.19044,87.27285 c 14.59496,0 23.11378,9.74777 23.11378,24.48191 0,14.73426 -9.07327,23.37463 -23.66822,23.37463 -14.59496,0 -23.66823,-9.19408 -23.66823,-23.92825 0,-14.73416 9.62772,-23.92829 24.22267,-23.92829 z"
       id="path916"
       stroke-miterlimit="4"
       inkscape:connector-curvature="0"
       style="fill:none;stroke:#ffffff;stroke-width:8.94491959;stroke-linejoin:round;stroke-miterlimit:4;stroke-opacity:1;stroke-dasharray:none" />
  </g>
</svg>
