<?xml version="1.0" encoding="UTF-8" standalone="no"?>
<!-- Created with Inkscape (http://www.inkscape.org/) -->

<svg
   xmlns:dc="http://purl.org/dc/elements/1.1/"
   xmlns:cc="http://creativecommons.org/ns#"
   xmlns:rdf="http://www.w3.org/1999/02/22-rdf-syntax-ns#"
   xmlns:svg="http://www.w3.org/2000/svg"
   xmlns="http://www.w3.org/2000/svg"
   xmlns:sodipodi="http://sodipodi.sourceforge.net/DTD/sodipodi-0.dtd"
   xmlns:inkscape="http://www.inkscape.org/namespaces/inkscape"
   id="svg2"
   version="1.1"
   inkscape:version="0.48.3.1 r9886"
   width="320"
   height="320"
   sodipodi:docname="thumb_COLOURBOX3856177.jpg">
  <metadata
     id="metadata8">
    <rdf:RDF>
      <cc:Work
         rdf:about="">
        <dc:format>image/svg+xml</dc:format>
        <dc:type
           rdf:resource="http://purl.org/dc/dcmitype/StillImage" />
        <dc:title></dc:title>
      </cc:Work>
    </rdf:RDF>
  </metadata>
  <defs
     id="defs6" />
  <sodipodi:namedview
     pagecolor="#ffffff"
     bordercolor="#666666"
     borderopacity="1"
     objecttolerance="10"
     gridtolerance="10"
     guidetolerance="10"
     inkscape:pageopacity="0"
     inkscape:pageshadow="2"
     inkscape:window-width="1680"
     inkscape:window-height="1026"
     id="namedview4"
     showgrid="false"
     inkscape:zoom="1.475"
     inkscape:cx="270.02502"
     inkscape:cy="128.87505"
     inkscape:window-x="0"
     inkscape:window-y="24"
     inkscape:window-maximized="1"
     inkscape:current-layer="svg2" />
  <rect
     style="fill:#460032;fill-opacity:0.94520545;stroke:none"
     id="rect3826"
     width="294.18088"
     height="302.74918"
     x="15.621419"
     y="8.6254225"
     ry="33.901535" />
  <path
     style="fill:#ffffff;fill-opacity:1;stroke:none;stroke-width:1.80315958999999992;stroke-miterlimit:4;stroke-opacity:1;stroke-dasharray:none"
     d="m 157.5354,266.08452 c -4.80015,-4.98226 -8.30827,-7.99725 -9.71505,-8.34942 -2.70146,-0.67628 -5.5636,0.77176 -7.1651,3.62501 -1.12247,1.99984 -1.07253,2.09857 3.36248,6.64803 3.74528,3.84192 4.1862,4.54895 2.62358,4.20698 -1.03305,-0.22609 -4.92112,-0.95962 -8.64014,-1.63007 -3.71902,-0.67046 -7.29375,-1.37613 -7.94387,-1.56819 -0.69532,-0.20538 -2.86081,-4.54424 -5.25922,-10.53758 -4.49291,-11.22726 -5.76701,-12.63018 -11.06973,-12.18893 -2.31415,0.19257 -2.96751,0.65056 -3.97061,2.78336 -1.16491,2.47686 -1.12656,2.72856 1.28741,8.45231 1.36843,3.24469 2.28097,5.89945 2.02788,5.89945 -0.2531,0 -3.76246,-2.04093 -7.79857,-4.53539 l -7.338399,-4.53537 -0.467335,-6.54654 c -0.887806,-12.43655 -1.296673,-15.00465 -2.776175,-17.4375 -1.395447,-2.29463 -1.689172,-2.41931 -4.858014,-2.06214 -1.855018,0.2091 -3.494248,0.50433 -3.64273,0.65609 -0.148483,0.15177 -0.554399,4.14557 -0.902033,8.8751 l -0.632064,8.59917 -6.089473,-8.14906 -6.089472,-8.14905 1.033089,-5.33367 c 3.496391,-18.05128 3.595205,-18.98066 2.238295,-21.05156 -1.00973,-1.54105 -1.876965,-1.93804 -4.233646,-1.93804 l -2.963795,0 -1.979173,6.48869 -1.979174,6.48871 -4.558631,-8.08831 -4.558632,-8.08831 5.38668,-10.80374 c 6.700902,-13.4396 7.062067,-17.55233 1.541378,-17.55233 -1.647451,0 -2.888988,1.08238 -6.423755,5.60029 -2.409888,3.08015 -4.59163,5.61586 -4.848316,5.63488 -0.256686,0.0191 -0.703488,-3.43087 -0.992894,-7.66641 -0.289406,-4.23555 -0.698174,-8.42374 -0.908373,-9.30708 -0.315137,-1.32435 1.197926,-2.88571 8.625276,-8.90069 8.943246,-7.24259 9.876628,-8.45103 9.874233,-12.78403 -0.0015,-2.63298 -0.546806,-3.61472 -2.607844,-4.69459 -3.560559,-1.86557 -5.398523,-1.43092 -9.717761,2.29803 -2.299877,1.98557 -4.181857,3.33707 -4.182179,3.00334 -3.22e-4,-0.33374 0.720573,-4.22771 1.601989,-8.6533 l 1.602574,-8.04651 10.019354,-3.97455 c 5.510646,-2.186 10.565964,-4.37086 11.234043,-4.85524 0.668078,-0.48438 1.401404,-2.27275 1.62961,-3.97416 0.716901,-5.3449 -3.178619,-6.62636 -11.470864,-3.7734 -2.421114,0.83298 -4.662183,1.42464 -4.980153,1.3148 -0.317969,-0.10983 1.601556,-3.58064 4.265611,-7.71289 2.664055,-4.132234 4.936719,-7.752819 5.050364,-8.045747 0.113645,-0.292917 5.278012,-0.758712 11.476374,-1.035106 12.574599,-0.560712 14.185943,-1.201601 15.086182,-6.000315 1.131608,-6.031933 -1.098572,-7.450307 -9.877534,-6.282052 -3.53767,0.470783 -6.567322,0.720768 -6.73256,0.555525 -0.165238,-0.165242 3.070495,-3.256919 7.190518,-6.870389 l 7.490946,-6.569959 8.900673,2.661179 c 12.78604,3.822862 16.47439,3.523573 18.57646,-1.507396 0.58486,-1.399746 1.06338,-2.851522 1.06338,-3.226157 0,-0.374647 -3.39165,-1.953365 -7.53698,-3.50828 l -7.53696,-2.827119 9.15287,-3.994821 c 7.14745,-3.119549 9.46118,-3.829844 10.55997,-3.241782 0.77389,0.414176 4.60132,2.765438 8.50541,5.225025 7.62555,4.804132 11.17746,5.620637 14.45722,3.3234 1.76402,-1.235567 2.88707,-5.310123 2.12519,-7.710532 -0.25776,-0.812117 -2.16363,-2.66314 -4.23528,-4.113375 l -3.76664,-2.636799 8.37021,-0.546793 c 6.64667,-0.4342 8.56899,-0.335504 9.33556,0.479305 0.53094,0.564346 3.58541,4.068925 6.78773,7.787939 6.27893,7.292057 7.91442,8.572395 11.00279,8.613521 2.05307,0.02737 5.88949,-3.601037 5.88949,-5.570138 0,-0.535456 -1.69636,-3.095667 -3.76968,-5.689357 -2.07331,-2.59369 -3.63664,-4.848826 -3.47404,-5.01142 0.42959,-0.429602 14.97601,2.913569 15.98455,3.673689 0.46862,0.353192 2.48042,4.436845 4.47065,9.074782 5.40564,12.597004 7.38865,14.689303 12.56685,13.259526 4.55155,-1.256735 4.69371,-2.087457 1.59237,-9.306606 -1.52748,-3.555666 -2.59538,-6.646701 -2.3731,-6.868982 0.39832,-0.39834 16.05776,8.430491 16.64864,9.38655 0.16722,0.270587 0.86595,5.387008 1.55273,11.369825 1.20096,10.462272 1.8262,12.463634 4.50962,14.435096 1.6589,1.218789 5.22217,0.53171 7.23285,-1.394638 1.95112,-1.869309 2.03691,-2.24247 1.68397,-7.325335 l -0.37188,-5.355703 2.34063,2.629606 c 1.28734,1.44629 3.73298,4.42593 5.43475,6.621435 l 3.09414,3.991828 -1.99499,10.66807 c -1.61337,8.62738 -1.84472,11.21231 -1.20944,13.51311 1.02383,3.708 3.33204,4.84716 7.37008,3.63734 2.87256,-0.86065 2.93954,-0.96388 3.85606,-5.94229 0.51299,-2.78654 1.16061,-5.49736 1.43914,-6.02405 0.29723,-0.56204 1.92854,2.27734 3.94923,6.8738 l 3.44282,7.83139 -5.24942,10.01423 c -4.63428,8.8407 -5.20207,10.36747 -4.84517,13.02843 0.51722,3.85604 2.80622,5.81513 6.43667,5.50893 2.23658,-0.18863 3.2275,-0.92329 6.06866,-4.49927 l 3.39562,-4.27383 0.59249,8.03042 0.59251,8.0304 -3.60413,3.38091 c -1.98226,1.85952 -5.9679,5.56159 -8.85697,8.22685 -4.97571,4.59022 -5.2491,5.01482 -5.18153,8.04714 0.0903,4.05359 1.3079,5.5142 4.59655,5.5142 2.01113,0 3.53292,-0.79222 6.66986,-3.47219 4.67815,-3.99667 4.63215,-4.10149 2.67809,6.1018 l -1.29497,6.76184 -10.49267,5.37242 c -12.11864,6.20493 -13.73979,7.7603 -12.38071,11.87833 0.50176,1.52038 1.39219,2.94849 1.97871,3.17356 0.58652,0.22506 3.83762,-0.45789 7.22465,-1.51769 3.38703,-1.05979 6.29411,-1.79105 6.46015,-1.62501 0.16605,0.16605 -1.7976,4.03721 -4.36367,8.60259 l -4.66556,8.3007 -3.94816,0 c -2.1715,0 -7.0629,0.22109 -10.86979,0.49131 -6.15969,0.43723 -7.16485,0.71853 -9.13121,2.55538 -2.74277,2.56214 -2.83416,5.11158 -0.29155,8.1333 1.74879,2.07832 2.37655,2.29888 7.1135,2.49943 l 5.19544,0.21993 -6.47653,5.17836 -6.47655,5.17837 -9.46493,-1.98833 c -11.54811,-2.42596 -15.30358,-2.52974 -17.35375,-0.47957 -1.69305,1.69305 -1.86188,3.25311 -0.70973,6.55817 0.81386,2.33462 3.03309,3.17915 8.41073,3.20068 1.13637,0.004 2.06611,0.31427 2.06611,0.68831 0,0.37402 -3.22595,2.56871 -7.16881,4.87709 l -7.1688,4.19706 -8.86662,-5.62842 c -7.22917,-4.589 -9.42187,-5.62841 -11.87331,-5.62841 -3.60374,0 -5.49354,1.73954 -5.49354,5.05677 0,1.95055 0.70425,2.83219 4.53809,5.68116 l 4.5381,3.37231 -4.72593,0.81395 c -2.59925,0.44767 -6.58543,0.97813 -8.85816,1.17879 l -4.13225,0.36483 -7.51315,-7.79822 0,0 z"
     id="path3963"
     inkscape:connector-curvature="0" />
  <path
     sodipodi:type="arc"
     style="fill:none;stroke:#460032;stroke-width:3.87637401;stroke-miterlimit:4;stroke-opacity:1;stroke-dasharray:none"
     id="path2995"
     sodipodi:cx="-84.067795"
     sodipodi:cy="171.52542"
     sodipodi:rx="29.152542"
     sodipodi:ry="29.152542"
     d="m -54.915253,171.52542 a 29.152542,29.152542 0 1 1 -58.305087,0 29.152542,29.152542 0 1 1 58.305087,0 z"
     transform="matrix(2.7525533,0,0,2.7525533,395.1299,-311.79388)" />
  <path
     transform="matrix(0.56503047,0,0,0.56503047,211.56866,63.760866)"
     d="m -54.915253,171.52542 a 29.152542,29.152542 0 1 1 -58.305087,0 29.152542,29.152542 0 1 1 58.305087,0 z"
     sodipodi:ry="29.152542"
     sodipodi:rx="29.152542"
     sodipodi:cy="171.52542"
     sodipodi:cx="-84.067795"
     id="path3965"
     style="fill:none;stroke:#460032;stroke-width:21.15815163;stroke-miterlimit:4;stroke-opacity:1;stroke-dasharray:none"
     sodipodi:type="arc" />
</svg>
