<?xml version="1.0" encoding="UTF-8" standalone="no"?>
<!-- Created with Inkscape (http://www.inkscape.org/) -->

<svg
   xmlns:dc="http://purl.org/dc/elements/1.1/"
   xmlns:cc="http://creativecommons.org/ns#"
   xmlns:rdf="http://www.w3.org/1999/02/22-rdf-syntax-ns#"
   xmlns:svg="http://www.w3.org/2000/svg"
   xmlns="http://www.w3.org/2000/svg"
   xmlns:xlink="http://www.w3.org/1999/xlink"
   xmlns:sodipodi="http://sodipodi.sourceforge.net/DTD/sodipodi-0.dtd"
   xmlns:inkscape="http://www.inkscape.org/namespaces/inkscape"
   width="48px"
   height="48px"
   id="svg1306"
   sodipodi:version="0.32"
   inkscape:version="0.48.3.1 r9886"
   sodipodi:docname="market-data-global.svg"
   inkscape:export-filename="/home/hbons/Desktop/gnucash.png"
   inkscape:export-xdpi="90"
   inkscape:export-ydpi="90"
   version="1.1">
  <defs
     id="defs1308">
    <linearGradient
       inkscape:collect="always"
       id="linearGradient2649">
      <stop
         style="stop-color:#d3d7cf;stop-opacity:1;"
         offset="0"
         id="stop2651" />
      <stop
         style="stop-color:#d3d7cf;stop-opacity:0;"
         offset="1"
         id="stop2653" />
    </linearGradient>
    <linearGradient
       inkscape:collect="always"
       id="linearGradient2632">
      <stop
         style="stop-color:#204a87;stop-opacity:1;"
         offset="0"
         id="stop2635" />
      <stop
         style="stop-color:#204a87;stop-opacity:0;"
         offset="1"
         id="stop2637" />
    </linearGradient>
    <linearGradient
       inkscape:collect="always"
       id="linearGradient2623">
      <stop
         style="stop-color:#babdb6;stop-opacity:1;"
         offset="0"
         id="stop2625" />
      <stop
         style="stop-color:#babdb6;stop-opacity:0;"
         offset="1"
         id="stop2627" />
    </linearGradient>
    <linearGradient
       id="aigrd2"
       gradientUnits="userSpaceOnUse"
       x1="12.2744"
       y1="32.4165"
       x2="35.3912"
       y2="14.2033">
      <stop
         offset="0"
         style="stop-color:#FBFBFB"
         id="stop3043" />
      <stop
         offset="0.5"
         style="stop-color:#B6B6B6"
         id="stop3045" />
      <stop
         offset="1"
         style="stop-color:#E4E4E4"
         id="stop3047" />
    </linearGradient>
    <linearGradient
       id="aigrd1"
       gradientUnits="userSpaceOnUse"
       x1="14.9966"
       y1="11.1885"
       x2="32.511"
       y2="34.3075">
      <stop
         offset="0"
         style="stop-color:#EBEBEB"
         id="stop3034" />
      <stop
         offset="0.5"
         style="stop-color:#FFFFFF"
         id="stop3036" />
      <stop
         offset="1"
         style="stop-color:#EBEBEB"
         id="stop3038" />
    </linearGradient>
    <linearGradient
       inkscape:collect="always"
       id="linearGradient23419">
      <stop
         style="stop-color:#000000;stop-opacity:1;"
         offset="0"
         id="stop23421" />
      <stop
         style="stop-color:#000000;stop-opacity:0;"
         offset="1"
         id="stop23423" />
    </linearGradient>
    <radialGradient
       inkscape:collect="always"
       xlink:href="#linearGradient23419"
       id="radialGradient3507"
       gradientUnits="userSpaceOnUse"
       gradientTransform="matrix(1,0,0,0.25,0,31.22703)"
       cx="23.334524"
       cy="41.63604"
       fx="23.334524"
       fy="41.63604"
       r="22.627417" />
    <linearGradient
       gradientTransform="translate(156.1887,-121.9111)"
       y2="16.560732"
       x2="24.511713"
       y1="5.8732319"
       x1="24.511713"
       gradientUnits="userSpaceOnUse"
       id="linearGradient3780"
       xlink:href="#linearGradient2622"
       inkscape:collect="always" />
    <linearGradient
       y2="7.8678756"
       x2="60.071049"
       y1="7.9206076"
       x1="32.827568"
       gradientTransform="matrix(0.750458,0,0,1.33252,156.1887,-121.9111)"
       gradientUnits="userSpaceOnUse"
       id="linearGradient3776"
       xlink:href="#linearGradient2580"
       inkscape:collect="always" />
    <linearGradient
       gradientTransform="translate(156.1887,-121.9111)"
       y2="15.191534"
       x2="22.435516"
       y1="39.066536"
       x1="24.588383"
       gradientUnits="userSpaceOnUse"
       id="linearGradient3773"
       xlink:href="#linearGradient2614"
       inkscape:collect="always" />
    <linearGradient
       gradientTransform="translate(156.1887,-121.9111)"
       y2="26.625"
       x2="25.375"
       y1="20.3125"
       x1="21.530331"
       gradientUnits="userSpaceOnUse"
       id="linearGradient3770"
       xlink:href="#linearGradient2630"
       inkscape:collect="always" />
    <linearGradient
       gradientTransform="translate(156.1887,-121.9111)"
       y2="25.25"
       x2="24.996323"
       y1="37.625"
       x1="25.850664"
       gradientUnits="userSpaceOnUse"
       id="linearGradient3766"
       xlink:href="#linearGradient2339"
       inkscape:collect="always" />
    <linearGradient
       y2="25.25"
       x2="24.996323"
       y1="37.625"
       x1="25.850664"
       gradientUnits="userSpaceOnUse"
       id="linearGradient3762"
       xlink:href="#linearGradient2339"
       inkscape:collect="always" />
    <linearGradient
       y2="26.625"
       x2="25.375"
       y1="20.3125"
       x1="21.530331"
       gradientUnits="userSpaceOnUse"
       id="linearGradient3760"
       xlink:href="#linearGradient2630"
       inkscape:collect="always" />
    <linearGradient
       y2="15.191534"
       x2="22.435516"
       y1="39.066536"
       x1="24.588383"
       gradientUnits="userSpaceOnUse"
       id="linearGradient3758"
       xlink:href="#linearGradient2614"
       inkscape:collect="always" />
    <linearGradient
       y2="7.8678756"
       x2="60.071049"
       y1="7.9206076"
       x1="32.827568"
       gradientTransform="scale(0.750458,1.33252)"
       gradientUnits="userSpaceOnUse"
       id="linearGradient3756"
       xlink:href="#linearGradient2580"
       inkscape:collect="always" />
    <linearGradient
       y2="16.560732"
       x2="24.511713"
       y1="5.8732319"
       x1="24.511713"
       gradientUnits="userSpaceOnUse"
       id="linearGradient3754"
       xlink:href="#linearGradient2622"
       inkscape:collect="always" />
    <linearGradient
       inkscape:collect="always"
       id="linearGradient2630">
      <stop
         style="stop-color:#ffffff;stop-opacity:1;"
         offset="0"
         id="stop2632" />
      <stop
         style="stop-color:#ffffff;stop-opacity:0;"
         offset="1"
         id="stop2634" />
    </linearGradient>
    <linearGradient
       id="linearGradient2622">
      <stop
         style="stop-color:#e4a05d;stop-opacity:1;"
         offset="0"
         id="stop2624" />
      <stop
         style="stop-color:#af651d;stop-opacity:1;"
         offset="1"
         id="stop2626" />
    </linearGradient>
    <linearGradient
       id="linearGradient2614">
      <stop
         style="stop-color:#e3aa57;stop-opacity:1;"
         offset="0"
         id="stop2616" />
      <stop
         style="stop-color:#eabd7c;stop-opacity:1;"
         offset="1"
         id="stop2618" />
    </linearGradient>
    <linearGradient
       id="linearGradient2580">
      <stop
         id="stop2582"
         offset="0"
         style="stop-color:#ffffff;stop-opacity:1;" />
      <stop
         id="stop2586"
         offset="1"
         style="stop-color:#729fcf;stop-opacity:0" />
    </linearGradient>
    <linearGradient
       inkscape:collect="always"
       id="linearGradient2339">
      <stop
         style="stop-color:#ffffff;stop-opacity:1;"
         offset="0"
         id="stop2341" />
      <stop
         style="stop-color:#ffffff;stop-opacity:0;"
         offset="1"
         id="stop2343" />
    </linearGradient>
    <linearGradient
       inkscape:collect="always"
       xlink:href="#linearGradient2580"
       id="linearGradient320"
       gradientUnits="userSpaceOnUse"
       gradientTransform="scale(0.750458,1.33252)"
       x1="32.827568"
       y1="7.9206076"
       x2="60.071049"
       y2="7.8678756" />
    <linearGradient
       inkscape:collect="always"
       xlink:href="#linearGradient2339"
       id="linearGradient2345"
       x1="25.850664"
       y1="37.625"
       x2="24.996323"
       y2="25.25"
       gradientUnits="userSpaceOnUse" />
    <linearGradient
       inkscape:collect="always"
       xlink:href="#linearGradient2614"
       id="linearGradient2620"
       x1="24.588383"
       y1="39.066536"
       x2="22.435516"
       y2="15.191534"
       gradientUnits="userSpaceOnUse" />
    <linearGradient
       inkscape:collect="always"
       xlink:href="#linearGradient2622"
       id="linearGradient2628"
       x1="24.511713"
       y1="5.8732319"
       x2="24.511713"
       y2="16.560732"
       gradientUnits="userSpaceOnUse" />
    <linearGradient
       inkscape:collect="always"
       xlink:href="#linearGradient2630"
       id="linearGradient2636"
       x1="21.530331"
       y1="20.3125"
       x2="25.375"
       y2="26.625"
       gradientUnits="userSpaceOnUse" />
    <radialGradient
       gradientUnits="userSpaceOnUse"
       gradientTransform="matrix(0.917623,-1.354978e-3,3.632022e-4,0.148463,1.926889,37.03865)"
       r="22.728432"
       fy="43.636444"
       fx="23.583666"
       cy="43.636444"
       cx="23.583666"
       id="radialGradient2823"
       xlink:href="#linearGradient2817"
       inkscape:collect="always" />
    <linearGradient
       id="linearGradient2817"
       inkscape:collect="always">
      <stop
         id="stop2819"
         offset="0"
         style="stop-color:#000000;stop-opacity:1;" />
      <stop
         id="stop2821"
         offset="1"
         style="stop-color:#000000;stop-opacity:0;" />
    </linearGradient>
    <linearGradient
       id="linearGradient4928">
      <stop
         style="stop-color:#fce94f;stop-opacity:1;"
         offset="0"
         id="stop4930" />
      <stop
         style="stop-color:#fce94f;stop-opacity:0;"
         offset="1"
         id="stop4932" />
    </linearGradient>
    <linearGradient
       id="linearGradient2300"
       inkscape:collect="always">
      <stop
         id="stop2302"
         offset="0"
         style="stop-color:#555753;stop-opacity:1;" />
      <stop
         id="stop2304"
         offset="1"
         style="stop-color:#555753;stop-opacity:0;" />
    </linearGradient>
    <radialGradient
       inkscape:collect="always"
       xlink:href="#linearGradient2300"
       id="radialGradient2596"
       gradientUnits="userSpaceOnUse"
       gradientTransform="matrix(1.113818,0,0,0.539348,-2.124098,18.94132)"
       cx="17.984474"
       cy="40.604275"
       fx="17.984474"
       fy="40.604275"
       r="21.030567" />
    <radialGradient
       inkscape:collect="always"
       xlink:href="#linearGradient2623"
       id="radialGradient2629"
       cx="24.5"
       cy="18.592903"
       fx="24.5"
       fy="18.592903"
       r="14.5"
       gradientTransform="matrix(2.94027,6.52871e-16,-5.403068e-16,2.433326,-47.53659,-23.36654)"
       gradientUnits="userSpaceOnUse" />
    <linearGradient
       inkscape:collect="always"
       xlink:href="#linearGradient2632"
       id="linearGradient2639"
       x1="24.612919"
       y1="20.159996"
       x2="29.182333"
       y2="12.24554"
       gradientUnits="userSpaceOnUse"
       gradientTransform="translate(9.536743e-7,1)" />
    <radialGradient
       inkscape:collect="always"
       xlink:href="#linearGradient2649"
       id="radialGradient2655"
       cx="24.013132"
       cy="31.643599"
       fx="24.013132"
       fy="31.643599"
       r="14.986866"
       gradientTransform="matrix(3.323547,1.57437e-32,-9.883069e-32,2.772052,-55.79564,-48.86618)"
       gradientUnits="userSpaceOnUse" />
    <radialGradient
       inkscape:collect="always"
       xlink:href="#linearGradient4126"
       id="radialGradient4132"
       gradientTransform="matrix(0.45708637,0,0,0.45709642,-1.049951,26.629088)"
       cx="15.601279"
       cy="12.142302"
       fx="15.601279"
       fy="12.142302"
       r="43.526714"
       gradientUnits="userSpaceOnUse" />
    <linearGradient
       id="linearGradient4126">
      <stop
         style="stop-color:#ffffff;stop-opacity:1.0000000;"
         offset="0.0000000"
         id="stop4128" />
      <stop
         style="stop-color:#ffffff;stop-opacity:0.16494845;"
         offset="1.0000000"
         id="stop4130" />
    </linearGradient>
    <radialGradient
       inkscape:collect="always"
       xlink:href="#linearGradient3962"
       id="radialGradient3968"
       gradientTransform="matrix(0.45708637,0,0,0.45709642,-1.049951,26.629088)"
       cx="18.247644"
       cy="15.716079"
       fx="18.247644"
       fy="15.716079"
       r="29.993349"
       gradientUnits="userSpaceOnUse" />
    <linearGradient
       id="linearGradient3962">
      <stop
         style="stop-color:#d3e9ff;stop-opacity:1.0000000;"
         offset="0.0000000"
         id="stop3964" />
      <stop
         style="stop-color:#d3e9ff;stop-opacity:1.0000000;"
         offset="0.15517241"
         id="stop4134" />
      <stop
         style="stop-color:#4074ae;stop-opacity:1.0000000;"
         offset="0.75000000"
         id="stop4346" />
      <stop
         style="stop-color:#36486c;stop-opacity:1.0000000;"
         offset="1.0000000"
         id="stop3966" />
    </linearGradient>
    <radialGradient
       inkscape:collect="always"
       xlink:href="#linearGradient4114"
       id="radialGradient4120"
       gradientTransform="scale(1.64399,0.608276)"
       cx="15.115514"
       cy="63.965389"
       fx="15.115514"
       fy="63.965389"
       r="12.289036"
       gradientUnits="userSpaceOnUse" />
    <linearGradient
       inkscape:collect="always"
       id="linearGradient4114">
      <stop
         style="stop-color:#000000;stop-opacity:1;"
         offset="0"
         id="stop4116" />
      <stop
         style="stop-color:#000000;stop-opacity:0;"
         offset="1"
         id="stop4118" />
    </linearGradient>
    <radialGradient
       r="12.289036"
       fy="63.965389"
       fx="15.115514"
       cy="63.965389"
       cx="15.115514"
       gradientTransform="scale(1.64399,0.608276)"
       gradientUnits="userSpaceOnUse"
       id="radialGradient3139"
       xlink:href="#linearGradient4114"
       inkscape:collect="always" />
  </defs>
  <sodipodi:namedview
     id="base"
     pagecolor="#ffffff"
     bordercolor="#666666"
     borderopacity="0.22745098"
     inkscape:pageopacity="0.0"
     inkscape:pageshadow="2"
     inkscape:zoom="6.062866"
     inkscape:cx="-1.4016139"
     inkscape:cy="22.595967"
     inkscape:current-layer="layer1"
     showgrid="true"
     inkscape:grid-bbox="true"
     inkscape:document-units="px"
     stroke="#888a85"
     fill="#edd400"
     inkscape:window-width="1366"
     inkscape:window-height="709"
     inkscape:window-x="0"
     inkscape:window-y="27"
     inkscape:showpageshadow="false"
     showguides="true"
     inkscape:guide-bbox="true"
     inkscape:window-maximized="1" />
  <metadata
     id="metadata1311">
    <rdf:RDF>
      <cc:Work
         rdf:about="">
        <dc:format>image/svg+xml</dc:format>
        <dc:type
           rdf:resource="http://purl.org/dc/dcmitype/StillImage" />
        <dc:title />
        <dc:creator>
          <cc:Agent>
            <dc:title>Andreas Nilsson</dc:title>
          </cc:Agent>
        </dc:creator>
        <dc:description />
        <cc:license
           rdf:resource="http://creativecommons.org/licenses/GPL/2.0/" />
        <dc:source>http://www.gnome.org</dc:source>
        <dc:contributor>
          <cc:Agent>
            <dc:title>Jakub Steiner</dc:title>
          </cc:Agent>
        </dc:contributor>
      </cc:Work>
      <cc:License
         rdf:about="http://creativecommons.org/licenses/GPL/2.0/">
        <cc:permits
           rdf:resource="http://web.resource.org/cc/Reproduction" />
        <cc:permits
           rdf:resource="http://web.resource.org/cc/Distribution" />
        <cc:requires
           rdf:resource="http://web.resource.org/cc/Notice" />
        <cc:permits
           rdf:resource="http://web.resource.org/cc/DerivativeWorks" />
        <cc:requires
           rdf:resource="http://web.resource.org/cc/ShareAlike" />
        <cc:requires
           rdf:resource="http://web.resource.org/cc/SourceCode" />
      </cc:License>
    </rdf:RDF>
  </metadata>
  <g
     id="layer1"
     inkscape:label="Layer 1"
     inkscape:groupmode="layer">
    <path
       sodipodi:type="arc"
       style="opacity:0.5;fill:url(#radialGradient2596);fill-opacity:1;fill-rule:evenodd;stroke:none"
       id="path2290"
       sodipodi:cx="18.66226"
       sodipodi:cy="41.416107"
       sodipodi:rx="21.030567"
       sodipodi:ry="10.183721"
       d="m 39.692827,41.416107 a 21.030567,10.183721 0 1 1 -42.0611341,0 21.030567,10.183721 0 1 1 42.0611341,0 z"
       transform="matrix(1.141197,0,0,0.834666,2.5377655,4.3541083)" />
    <rect
       style="opacity:1;fill:#eeeeec;fill-opacity:1;fill-rule:evenodd;stroke:#555753;stroke-width:1.00000036;stroke-miterlimit:4;stroke-dasharray:none;stroke-opacity:1"
       id="rect1354"
       width="35.041153"
       height="34.99564"
       x="6.472692"
       y="2.5016282"
       rx="2.0000002"
       ry="2.0000021" />
    <rect
       style="opacity:1;fill:url(#radialGradient2655);fill-opacity:1;fill-rule:evenodd;stroke:none;stroke-width:0.99999994;stroke-miterlimit:4;stroke-dasharray:none;stroke-opacity:1"
       id="rect2229"
       width="29.973732"
       height="25"
       x="9.026268"
       y="6"
       rx="1.6250001"
       ry="1.6250001" />
    <path
       style="opacity:1;fill:url(#radialGradient2629);fill-opacity:1;fill-rule:evenodd;stroke:none;stroke-width:1;stroke-miterlimit:4;stroke-dasharray:none;stroke-opacity:1"
       d="M 14.031251,6 L 14.031251,10 L 10.000001,10 L 10.000001,11 L 14.031251,11 L 14.031251,15 L 10.000001,15 L 10.000001,16 L 14.031251,16 L 14.031251,20 L 10.000001,20 L 10.000001,21 L 14.031251,21 L 14.031251,25 L 10.000001,25 L 10.000001,26 L 14.031251,26 L 14.031251,30 L 15.031251,30 L 15.031251,26 L 19.031251,26 L 19.031251,30 L 20.031251,30 L 20.031251,26 L 24.031251,26 L 24.031251,30 L 25.031251,30 L 25.031251,26 L 29.031251,26 L 29.031251,30 L 30.031251,30 L 30.031251,26 L 34.031251,26 L 34.031251,30 L 35.031251,30 L 35.031251,26 L 39.000001,26 L 39.000001,25 L 35.031251,25 L 35.031251,21 L 39.000001,21 L 39.000001,20 L 35.031251,20 L 35.031251,16 L 39.000001,16 L 39.000001,15 L 35.031251,15 L 35.031251,11 L 39.000001,11 L 39.000001,10 L 35.031251,10 L 35.031251,6 L 34.031251,6 L 34.031251,10 L 30.031251,10 L 30.031251,6 L 29.031251,6 L 29.031251,10 L 25.031251,10 L 25.031251,6 L 24.031251,6 L 24.031251,10 L 20.031251,10 L 20.031251,6 L 19.031251,6 L 19.031251,10 L 15.031251,10 L 15.031251,6 L 14.031251,6 z M 15.031251,11 L 19.031251,11 L 19.031251,15 L 15.031251,15 L 15.031251,11 z M 20.031251,11 L 24.031251,11 L 24.031251,15 L 20.031251,15 L 20.031251,11 z M 25.031251,11 L 29.031251,11 L 29.031251,15 L 25.031251,15 L 25.031251,11 z M 30.031251,11 L 34.031251,11 L 34.031251,15 L 30.031251,15 L 30.031251,11 z M 15.031251,16 L 19.031251,16 L 19.031251,20 L 15.031251,20 L 15.031251,16 z M 20.031251,16 L 24.031251,16 L 24.031251,20 L 20.031251,20 L 20.031251,16 z M 25.031251,16 L 29.031251,16 L 29.031251,20 L 25.031251,20 L 25.031251,16 z M 30.031251,16 L 34.031251,16 L 34.031251,20 L 30.031251,20 L 30.031251,16 z M 15.031251,21 L 19.031251,21 L 19.031251,25 L 15.031251,25 L 15.031251,21 z M 20.031251,21 L 24.031251,21 L 24.031251,25 L 20.031251,25 L 20.031251,21 z M 25.031251,21 L 29.031251,21 L 29.031251,25 L 25.031251,25 L 25.031251,21 z M 30.031251,21 L 34.031251,21 L 34.031251,25 L 30.031251,25 L 30.031251,21 z "
       id="rect2281" />
    <path
       style="opacity:1;fill:url(#linearGradient2639);fill-opacity:1;fill-rule:evenodd;stroke:none;stroke-width:1;stroke-miterlimit:4;stroke-dasharray:none;stroke-opacity:1"
       d="M 28.531251,13 L 23.648235,21.817147 L 15.038453,17.019865 L 9.031251,26.5 L 9.906251,27 L 15.318426,18.273234 L 24.019866,23.054484 L 29.406251,13.5 L 28.531251,13 z "
       id="rect2293"
       sodipodi:nodetypes="ccccccccc" />
    <rect
       style="opacity:1;fill:#888a85;fill-opacity:1;fill-rule:evenodd;stroke:none;stroke-width:1;stroke-miterlimit:4;stroke-dasharray:none;stroke-opacity:1"
       id="rect2600"
       width="1"
       height="30"
       x="30"
       y="-39"
       transform="matrix(4.694983e-19,1,-1,2.300541e-19,0,0)" />
    <rect
       style="opacity:1;fill:#888a85;fill-opacity:1;fill-rule:evenodd;stroke:none;stroke-width:1;stroke-miterlimit:4;stroke-dasharray:none;stroke-opacity:1"
       id="rect2231"
       width="1"
       height="25"
       x="9.026268"
       y="6" />
    <path
       sodipodi:type="arc"
       style="opacity:0.6;fill:none;fill-opacity:1;fill-rule:evenodd;stroke:#ffffff;stroke-width:1.24244022;stroke-miterlimit:4;stroke-dasharray:none;stroke-opacity:1"
       id="path3781"
       sodipodi:cx="26.492901"
       sodipodi:cy="18.894651"
       sodipodi:rx="6.330162"
       sodipodi:ry="2.1770399"
       d="M 32.823063 18.894651 A 6.330162 2.1770399 0 1 1  20.162739,18.894651 A 6.330162 2.1770399 0 1 1  32.823063 18.894651 z"
       transform="matrix(0.94829,0,0,0.683138,51.81195,16.04905)" />
    <path
       style="opacity:0.2;fill:#ffffff;fill-opacity:1;fill-rule:evenodd;stroke:none;stroke-width:1;stroke-miterlimit:4;stroke-opacity:1"
       d="M 9.000001,6 L 39.000001,6 C 26.839345,9.9101256 27.66243,24 9.000001,24 L 9.000001,6 z "
       id="rect2743"
       sodipodi:nodetypes="cccc" />
    <path
       sodipodi:type="arc"
       style="fill:url(#radialGradient3139);fill-opacity:1;stroke:none"
       id="path4112"
       sodipodi:cx="24.849752"
       sodipodi:cy="38.908627"
       sodipodi:rx="20.203051"
       sodipodi:ry="7.4751287"
       d="m 45.052803,38.908627 a 20.203051,7.4751287 0 1 1 -40.4061012,0 20.203051,7.4751287 0 1 1 40.4061012,0 z"
       transform="matrix(0.4570914,0,0,0.56827614,-1.049951,21.933657)" />
    <path
       inkscape:connector-curvature="0"
       style="fill:url(#radialGradient3968);fill-opacity:1;fill-rule:nonzero;stroke:#39396c;stroke-width:0.45709139;stroke-miterlimit:4;stroke-opacity:1"
       d="m 19.043719,37.364108 c 0,4.89532 -3.968515,8.863789 -8.863162,8.863789 -4.8950939,0 -8.8633845,-3.968514 -8.8633845,-8.863789 0,-4.895096 3.9682906,-8.863161 8.8633845,-8.863161 4.894647,0 8.863162,3.968065 8.863162,8.863161 l 0,0 z"
       id="path3214" />
    <g
       id="g4136"
       style="fill:#204a87;fill-opacity:0.71345029;fill-rule:nonzero;stroke:none"
       transform="matrix(0.44903333,0,0,0.44903333,-0.99460738,26.735551)">
      <g
         id="g4138"
         style="fill:#204a87">
        <g
           id="g4142"
           style="fill:#204a87">
          <path
             inkscape:connector-curvature="0"
             d="m 44.0713,20.7144 c 0,0.2627 0,0 0,0 l -0.5449,0.6172 c -0.334,-0.3936 -0.709,-0.7246 -1.0898,-1.0703 l -0.8359,0.123 -0.7637,-0.8633 0,1.0684 0.6543,0.4951 0.4355,0.4932 0.582,-0.6582 c 0.1465,0.2744 0.291,0.5488 0.4365,0.8232 l 0,0.8223 -0.6553,0.7402 -1.1992,0.8232 -0.9082,0.9063 -0.582,-0.6602 0.291,-0.7402 -0.5811,-0.6582 -0.9814,-2.0977 -0.8359,-0.9453 -0.2188,0.2461 0.3281,1.1934 0.6172,0.6992 c 0.3525,1.0176 0.7012,1.9902 1.1641,2.9629 0.7178,0 1.3945,-0.0762 2.1074,-0.166 l 0,0.5762 -0.8721,2.1392 -0.7998,0.9043 -0.6543,1.4004 c 0,0.7676 0,1.5352 0,2.3027 l 0.2188,0.9063 -0.3633,0.4102 -0.8008,0.4941 -0.8359,0.6992 0.6914,0.7813 -0.9453,0.8242 0.1816,0.5332 -1.418,1.6055 -0.9443,0 -0.7998,0.4941 -0.5098,0 0,-0.6582 -0.2168,-1.3184 c -0.2813,-0.8262 -0.5742,-1.6465 -0.8721,-2.4668 0,-0.6055 0.0361,-1.2051 0.0723,-1.8105 l 0.3643,-0.8223 -0.5098,-0.9883 0.0371,-1.3574 -0.6914,-0.7813 0.3457,-1.1309 -0.5625,-0.6382 -0.9824,0 -0.3271,-0.3701 -0.9814,0.6177 -0.3994,-0.4536 -0.9092,0.7817 c -0.6172,-0.6997 -1.2354,-1.3989 -1.8535,-2.0981 l -0.7266,-1.7285 0.6543,-0.9863 -0.3633,-0.4111 0.7988,-1.8936 c 0.6563,-0.8164 1.3418,-1.5996 2.0352,-2.3857 l 1.2363,-0.3291 1.3809,-0.1641 0.9453,0.2471 1.3447,1.3564 0.4727,-0.5342 0.6533,-0.082 1.2363,0.4111 0.9453,0 0.6543,-0.5762 0.291,-0.4111 -0.6553,-0.4111 -1.0908,-0.082 c -0.3027,-0.4199 -0.584,-0.8613 -0.9434,-1.2344 l -0.3643,0.1641 -0.1455,1.0703 -0.6543,-0.7402 -0.1445,-0.8242 -0.7266,-0.5742 -0.292,0 0.7275,0.8223 -0.291,0.7402 -0.5811,0.1641 0.3633,-0.7402 -0.6553,-0.3281 -0.5801,-0.6582 -1.0918,0.2461 -0.1445,0.3281 -0.6543,0.4121 -0.3633,0.9053 -0.9082,0.4521 -0.4004,-0.4521 -0.4355,0 0,-1.4814 0.9453,-0.4941 0.7266,0 -0.1465,-0.5752 -0.5801,-0.5762 0.9805,-0.2061 0.5449,-0.6162 0.4355,-0.7412 0.8008,0 -0.2188,-0.5752 0.5098,-0.3291 0,0.6582 1.0898,0.2461 1.0898,-0.9043 0.0732,-0.4121 0.9443,-0.6577 c -0.3418,0.0425 -0.6836,0.0737 -1.0176,0.1646 l 0,-0.7411 0.3633,-0.8228 -0.3633,0 -0.7984,0.7402 -0.2188,0.4116 0.2188,0.5767 -0.3643,0.9863 -0.5811,-0.3291 -0.5078,-0.5752 -0.8008,0.5752 -0.291,-1.3159 1.3809,-0.9048 0,-0.4941 0.873,-0.5757 1.3809,-0.3296 0.9453,0.3296 1.7441,0.3291 -0.4355,0.4932 -0.9453,0 0.9453,0.9873 0.7266,-0.8223 0.2207,-0.3618 c 0,0 2.7871,2.498 4.3799,5.2305 1.5928,2.7334 2.3408,5.9551 2.3408,6.6094 z"
             id="path4144"
             style="fill:#204a87" />
        </g>
      </g>
      <g
         id="g4146"
         style="fill:#204a87">
        <g
           id="g4150"
           style="fill:#204a87">
          <path
             inkscape:connector-curvature="0"
             d="m 26.0703,9.2363 -0.0732,0.4932 0.5098,0.3291 0.8711,-0.5757 -0.4355,-0.4937 -0.582,0.3296 -0.29,-0.0825"
             id="path4152"
             style="fill:#204a87" />
        </g>
      </g>
      <g
         id="g4154"
         style="fill:#204a87">
        <g
           id="g4158"
           style="fill:#204a87">
          <path
             inkscape:connector-curvature="0"
             d="m 26.8701,5.8633 -1.8906,-0.7407 -2.1797,0.2466 -2.6904,0.7402 -0.5088,0.4941 1.6719,1.1514 0,0.6582 -0.6543,0.6582 0.873,1.729 0.5801,-0.3301 0.7285,-1.1514 c 1.123,-0.3472 2.1299,-0.7407 3.1973,-1.2344 l 0.873,-2.2212"
             id="path4160"
             style="fill:#204a87" />
        </g>
      </g>
      <g
         id="g4162"
         style="fill:#204a87">
        <g
           id="g4166"
           style="fill:#204a87">
          <path
             inkscape:connector-curvature="0"
             d="m 28.833,12.7749 -0.291,-0.7412 -0.5098,0.165 0.1465,0.9043 0.6543,-0.3281"
             id="path4168"
             style="fill:#204a87" />
        </g>
      </g>
      <g
         id="g4170"
         style="fill:#204a87">
        <g
           id="g4174"
           style="fill:#204a87">
          <path
             inkscape:connector-curvature="0"
             d="m 29.123,12.6089 -0.1455,0.9883 0.7998,-0.165 0.5811,-0.5752 -0.5088,-0.4941 C 29.6787,11.9078 29.4824,11.483 29.2685,11.0465 l -0.4355,0 0,0.4932 0.29,0.3291 0,0.7402"
             id="path4176"
             style="fill:#204a87" />
        </g>
      </g>
      <g
         id="g4178"
         style="fill:#204a87">
        <g
           id="g4182"
           style="fill:#204a87">
          <path
             inkscape:connector-curvature="0"
             d="m 18.3652,28.2422 -0.582,-1.1523 -1.0903,-0.2466 -0.5815,-1.5625 -1.4536,0.1641 -1.2354,-0.9043 -1.3091,1.1514 0,0.1816 c -0.396,-0.1143 -0.8828,-0.1299 -1.2354,-0.3467 l -0.291,-0.8223 0,-0.9053 -0.8721,0.082 c 0.0728,-0.5762 0.145,-1.1514 0.2183,-1.7275 l -0.5093,0 -0.5083,0.6582 -0.5093,0.2461 -0.7271,-0.4102 -0.0728,-0.9053 0.1455,-0.9873 1.0908,-0.8223 0.8721,0 0.145,-0.4941 1.0903,0.2461 0.7998,0.9883 0.1455,-1.6465 1.3813,-1.1514 0.5088,-1.2344 1.0176,-0.4111 0.5815,-0.8223 1.3081,-0.248 0.6548,-0.9863 c -0.6543,0 -1.3086,0 -1.9629,0 l 1.2358,-0.5762 0.8716,0 1.2363,-0.4121 0.1455,-0.4922 -0.4365,-0.4121 -0.5088,-0.165 0.1455,-0.4932 -0.3633,-0.7402 -0.8726,0.3281 0.1455,-0.6577 -1.0176,-0.5762 -0.7993,1.3979 0.0723,0.4941 -0.7993,0.3301 -0.5093,1.0693 -0.2178,-0.9873 -1.3813,-0.5762 -0.2183,-0.7402 1.8174,-1.0703 0.7998,-0.7402 0.0728,-0.9048 -0.436,-0.2471 -0.5815,-0.0825 -0.3633,0.9053 c 0,0 -0.6079,0.1191 -0.7642,0.1577 -1.9961,1.8394 -6.0293,5.8101 -6.9663,13.3062 0.0371,0.1738 0.6792,1.1816 0.6792,1.1816 l 1.5264,0.9043 1.5264,0.4121 0.6548,0.8232 1.0171,0.7402 0.5815,-0.082 0.436,0.1963 0,0.1328 -0.5811,1.563 -0.4365,0.6582 0.1455,0.3301 -0.3633,1.2324 1.3086,2.3867 1.3081,1.1523 0.582,0.8223 -0.0732,1.7285 0.4365,0.9863 -0.4365,1.8926 c 0,0 -0.0342,-0.0117 0.0215,0.1777 0.0562,0.1895 2.3291,1.4512 2.4736,1.3438 0.144,-0.1094 0.2671,-0.2051 0.2671,-0.2051 l -0.145,-0.4102 0.5811,-0.5762 0.2183,-0.5762 0.9453,-0.3301 0.7266,-1.8105 -0.2178,-0.4922 0.5078,-0.7402 1.0908,-0.248 0.582,-1.3164 -0.1455,-1.6445 0.8721,-1.2344 0.1455,-1.2344 C 20.7331,29.4607 19.5495,28.8513 18.365,28.242"
             id="path4184"
             style="fill:#204a87" />
        </g>
      </g>
      <g
         id="g4186"
         style="fill:#204a87">
        <g
           id="g4190"
           style="fill:#204a87">
          <path
             inkscape:connector-curvature="0"
             d="m 16.7656,9.5649 0.7266,0.4937 0.582,0 0,-0.5757 -0.7266,-0.3291 -0.582,0.4111"
             id="path4192"
             style="fill:#204a87" />
        </g>
      </g>
      <g
         id="g4194"
         style="fill:#204a87">
        <g
           id="g4198"
           style="fill:#204a87">
          <path
             inkscape:connector-curvature="0"
             d="m 14.876,8.9072 -0.3638,0.9048 0.7271,0 0.3638,-0.8228 C 15.9166,8.7675 16.2286,8.5444 16.5479,8.331 l 0.7271,0.2471 c 0.4844,0.3291 0.9688,0.6582 1.4536,0.9868 L 19.4561,8.9072 18.6558,8.5781 18.292,7.8374 16.9111,7.6728 16.8383,7.2612 16.184,7.4262 15.8936,8.002 15.5298,7.2613 l -0.145,0.3291 0.0728,0.8228 -0.5816,0.494"
             id="path4200"
             style="fill:#204a87" />
        </g>
      </g>
      <g
         id="g4202"
         style="fill:#204a87">
        <g
           style="opacity:0.75;fill:#204a87"
           id="g4204">
          <path
             inkscape:connector-curvature="0"
             id="path4206"
             d=""
             style="fill:#204a87" />
        </g>
        <g
           id="g4208"
           style="fill:#204a87">
          <path
             inkscape:connector-curvature="0"
             id="path4210"
             d=""
             style="fill:#204a87" />
        </g>
      </g>
      <g
         id="g4212"
         style="fill:#204a87">
        <g
           style="opacity:0.75;fill:#204a87"
           id="g4214">
          <path
             inkscape:connector-curvature="0"
             id="path4216"
             d=""
             style="fill:#204a87" />
        </g>
        <g
           id="g4218"
           style="fill:#204a87">
          <path
             inkscape:connector-curvature="0"
             id="path4220"
             d=""
             style="fill:#204a87" />
        </g>
      </g>
      <g
         id="g4222"
         style="fill:#204a87">
        <g
           id="g4226"
           style="fill:#204a87">
          <path
             inkscape:connector-curvature="0"
             d="M 17.4922,6.8496 17.856,6.521 18.5831,6.3564 c 0.498,-0.2422 0.998,-0.4053 1.5264,-0.5762 l -0.29,-0.4937 -0.9385,0.1348 -0.4434,0.4419 -0.731,0.106 -0.6499,0.3052 -0.3159,0.1528 -0.1929,0.2583 0.9443,0.1641"
             id="path4228"
             style="fill:#204a87" />
        </g>
      </g>
      <g
         id="g4230"
         style="fill:#204a87">
        <g
           id="g4234"
           style="fill:#204a87">
          <path
             inkscape:connector-curvature="0"
             d="m 18.7285,14.6665 0.4365,-0.6582 -0.6548,-0.4932 0.2183,1.1514"
             id="path4236"
             style="fill:#204a87" />
        </g>
      </g>
    </g>
    <path
       inkscape:connector-curvature="0"
       style="opacity:0.39560439;fill:none;stroke:url(#radialGradient4132);stroke-width:0.45709139;stroke-miterlimit:4;stroke-opacity:1"
       d="m 18.593593,37.364124 c 0,4.646708 -3.766971,8.413638 -8.413041,8.413638 -4.6464949,0 -8.4132547,-3.766972 -8.4132547,-8.413638 0,-4.646496 3.7667598,-8.413042 8.4132547,-8.413042 4.64607,0 8.413041,3.766546 8.413041,8.413042 l 0,0 z"
       id="path4122" />
  </g>
</svg>
