<?xml version="1.0" encoding="UTF-8" standalone="no"?>
<!-- Created with Inkscape (http://www.inkscape.org/) -->

<svg
   xmlns:dc="http://purl.org/dc/elements/1.1/"
   xmlns:cc="http://creativecommons.org/ns#"
   xmlns:rdf="http://www.w3.org/1999/02/22-rdf-syntax-ns#"
   xmlns:svg="http://www.w3.org/2000/svg"
   xmlns="http://www.w3.org/2000/svg"
   xmlns:xlink="http://www.w3.org/1999/xlink"
   xmlns:sodipodi="http://sodipodi.sourceforge.net/DTD/sodipodi-0.dtd"
   xmlns:inkscape="http://www.inkscape.org/namespaces/inkscape"
   inkscape:export-ydpi="90.000000"
   inkscape:export-xdpi="90.000000"
   inkscape:export-filename="/home/jimmac/Desktop/wi-fi.png"
   width="48px"
   height="48px"
   id="svg11300"
   sodipodi:version="0.32"
   inkscape:version="0.48.3.1 r9886"
   sodipodi:docname="risk-save.svg"
   inkscape:output_extension="org.inkscape.output.svg.inkscape"
   version="1.1">
  <defs
     id="defs3">
    <inkscape:perspective
       sodipodi:type="inkscape:persp3d"
       inkscape:vp_x="0 : 24 : 1"
       inkscape:vp_y="0 : 1000 : 0"
       inkscape:vp_z="48 : 24 : 1"
       inkscape:persp3d-origin="24 : 16 : 1"
       id="perspective33" />
    <linearGradient
       inkscape:collect="always"
       id="linearGradient5060">
      <stop
         style="stop-color:black;stop-opacity:1;"
         offset="0"
         id="stop5062" />
      <stop
         style="stop-color:black;stop-opacity:0;"
         offset="1"
         id="stop5064" />
    </linearGradient>
    <linearGradient
       id="linearGradient5048">
      <stop
         style="stop-color:black;stop-opacity:0;"
         offset="0"
         id="stop5050" />
      <stop
         id="stop5056"
         offset="0.5"
         style="stop-color:black;stop-opacity:1;" />
      <stop
         style="stop-color:black;stop-opacity:0;"
         offset="1"
         id="stop5052" />
    </linearGradient>
    <linearGradient
       id="linearGradient2933">
      <stop
         style="stop-color:#9cbcde;stop-opacity:1"
         offset="0"
         id="stop2935" />
      <stop
         style="stop-color:#204a87"
         offset="1"
         id="stop2937" />
    </linearGradient>
    <linearGradient
       id="linearGradient3958-6">
      <stop
         id="stop3960-4"
         offset="0"
         style="stop-color:#3465a4;stop-opacity:1;" />
      <stop
         style="stop-color:#9fbce1;stop-opacity:1;"
         offset="0.04351567"
         id="stop3962-6" />
      <stop
         id="stop3964-3"
         offset="0.42437419"
         style="stop-color:#6b95ca;stop-opacity:1;" />
      <stop
         style="stop-color:#3d6aa5;stop-opacity:1;"
         offset="1"
         id="stop3966-5" />
      <stop
         id="stop3968-2"
         offset="1"
         style="stop-color:#386eb4;stop-opacity:1;" />
    </linearGradient>
    <linearGradient
       id="aigrd1-1-1"
       gradientUnits="userSpaceOnUse"
       x1="99.777298"
       y1="15.4238"
       x2="153.0005"
       y2="248.6311">
      <stop
         offset="0"
         style="stop-color:#184375"
         id="stop53300-1-1" />
      <stop
         offset="1"
         style="stop-color:#c2c0c6;stop-opacity:1;"
         id="stop53302-9-5" />
    </linearGradient>
    <radialGradient
       inkscape:collect="always"
       xlink:href="#linearGradient2933-8"
       id="radialGradient2939-7"
       cx="25.457863"
       cy="35.596233"
       fx="25.457863"
       fy="35.596233"
       r="20.530962"
       gradientUnits="userSpaceOnUse"
       gradientTransform="matrix(2.128185,0,0,2.128254,-29.01906,-39.91779)" />
    <linearGradient
       id="linearGradient2933-8">
      <stop
         style="stop-color:#9cbcde;stop-opacity:1"
         offset="0"
         id="stop2935-9" />
      <stop
         style="stop-color:#204a87"
         offset="1"
         id="stop2937-1" />
    </linearGradient>
    <radialGradient
       inkscape:collect="always"
       xlink:href="#linearGradient2933-80"
       id="radialGradient2939-5"
       cx="25.457863"
       cy="35.596233"
       fx="25.457863"
       fy="35.596233"
       r="20.530962"
       gradientUnits="userSpaceOnUse"
       gradientTransform="matrix(2.128185,0,0,2.128254,-29.01906,-39.91779)" />
    <linearGradient
       id="linearGradient2933-80">
      <stop
         style="stop-color:#9cbcde;stop-opacity:1"
         offset="0"
         id="stop2935-8" />
      <stop
         style="stop-color:#204a87"
         offset="1"
         id="stop2937-0" />
    </linearGradient>
    <linearGradient
       inkscape:collect="always"
       xlink:href="#linearGradient5048"
       id="linearGradient3183"
       gradientUnits="userSpaceOnUse"
       gradientTransform="matrix(0.06378431,0,0,0.04619833,2.3388479,19.55111)"
       x1="302.85715"
       y1="366.64789"
       x2="302.85715"
       y2="609.50507" />
    <radialGradient
       inkscape:collect="always"
       xlink:href="#linearGradient5060"
       id="radialGradient3185"
       gradientUnits="userSpaceOnUse"
       gradientTransform="matrix(0.06378431,0,0,0.04619833,2.3514007,19.55111)"
       cx="605.71429"
       cy="486.64789"
       fx="605.71429"
       fy="486.64789"
       r="117.14286" />
    <radialGradient
       inkscape:collect="always"
       xlink:href="#linearGradient5060"
       id="radialGradient3187"
       gradientUnits="userSpaceOnUse"
       gradientTransform="matrix(-0.06378431,0,0,0.04619833,48.43325,19.55111)"
       cx="605.71429"
       cy="486.64789"
       fx="605.71429"
       fy="486.64789"
       r="117.14286" />
    <radialGradient
       inkscape:collect="always"
       xlink:href="#linearGradient2933-80"
       id="radialGradient3189"
       gradientUnits="userSpaceOnUse"
       gradientTransform="matrix(2.128185,0,0,2.128254,-28.96475,-40.972097)"
       cx="25.457863"
       cy="35.596233"
       fx="25.457863"
       fy="35.596233"
       r="20.530962" />
    <linearGradient
       id="linearGradient5048-4">
      <stop
         style="stop-color:black;stop-opacity:0;"
         offset="0"
         id="stop5050-4" />
      <stop
         id="stop5056-5"
         offset="0.5"
         style="stop-color:black;stop-opacity:1;" />
      <stop
         style="stop-color:black;stop-opacity:0;"
         offset="1"
         id="stop5052-8" />
    </linearGradient>
    <linearGradient
       id="linearGradient2803-4">
      <stop
         id="stop2805-0"
         offset="0"
         style="stop-color:#ffffff;stop-opacity:1;" />
      <stop
         id="stop2807-0"
         offset="1.0000000"
         style="stop-color:#cbcbcb;stop-opacity:1.0000000;" />
    </linearGradient>
    <linearGradient
       id="linearGradient2094-2">
      <stop
         style="stop-color:#d6e3f0;stop-opacity:1.0000000;"
         offset="0.0000000"
         id="stop2096-1" />
      <stop
         style="stop-color:#95b1cf;stop-opacity:1.0000000;"
         offset="1.0000000"
         id="stop2098-4" />
    </linearGradient>
    <linearGradient
       id="linearGradient2795-6">
      <stop
         id="stop2797-3"
         offset="0.0000000"
         style="stop-color:#000000;stop-opacity:0.068627454;" />
      <stop
         id="stop2799-4"
         offset="1.0000000"
         style="stop-color:#ffffff;stop-opacity:1.0000000;" />
    </linearGradient>
    <linearGradient
       y2="21.270376"
       x2="-2.7582901"
       y1="26.652197"
       x1="73.361984"
       gradientTransform="matrix(1.025428,0,0,0.91115916,1.2374365,3.1445418)"
       gradientUnits="userSpaceOnUse"
       id="linearGradient3104-5"
       xlink:href="#linearGradient2116-9"
       inkscape:collect="always" />
    <linearGradient
       inkscape:collect="always"
       id="linearGradient2116-9">
      <stop
         style="stop-color:#ffffff;stop-opacity:1;"
         offset="0"
         id="stop2118-8" />
      <stop
         style="stop-color:#ffffff;stop-opacity:0;"
         offset="1"
         id="stop2120-5" />
    </linearGradient>
    <linearGradient
       inkscape:collect="always"
       xlink:href="#linearGradient6901-9"
       id="linearGradient3998"
       gradientUnits="userSpaceOnUse"
       gradientTransform="matrix(1.6091818,0,0,1.6606002,-70.78865,-11.214904)"
       x1="14.751649"
       y1="15.868432"
       x2="8.8953285"
       y2="16.743431" />
    <linearGradient
       id="linearGradient6901-9">
      <stop
         style="stop-color:#4fc25f;stop-opacity:1;"
         offset="0"
         id="stop6903-7" />
      <stop
         style="stop-color:#3465a4;stop-opacity:0;"
         offset="1"
         id="stop6905-6" />
    </linearGradient>
    <linearGradient
       inkscape:collect="always"
       xlink:href="#linearGradient6925-2"
       id="linearGradient4000"
       gradientUnits="userSpaceOnUse"
       gradientTransform="matrix(1.6091818,0,0,1.6606002,-70.78865,-11.214904)"
       x1="12.25"
       y1="18.25"
       x2="7"
       y2="21.118431" />
    <linearGradient
       id="linearGradient6925-2">
      <stop
         style="stop-color:#288720;stop-opacity:1;"
         offset="0"
         id="stop6927-9" />
      <stop
         style="stop-color:#204a87;stop-opacity:0;"
         offset="1"
         id="stop6929-3" />
    </linearGradient>
    <linearGradient
       inkscape:collect="always"
       xlink:href="#linearGradient2187"
       id="linearGradient4002"
       gradientUnits="userSpaceOnUse"
       gradientTransform="matrix(1.4709756,0,0,1.5179779,-77.01409,-15.709986)"
       x1="33.059906"
       y1="27.394117"
       x2="12.624337"
       y2="12.583769" />
    <linearGradient
       id="linearGradient2187"
       inkscape:collect="always">
      <stop
         id="stop2189"
         offset="0"
         style="stop-color:#ffffff;stop-opacity:1;" />
      <stop
         id="stop2191"
         offset="1"
         style="stop-color:#ffffff;stop-opacity:0;" />
    </linearGradient>
    <radialGradient
       r="19.0625"
       fy="6.4576745"
       fx="23.447077"
       cy="6.4576745"
       cx="23.447077"
       gradientTransform="matrix(-2.1152229,-0.01671082,-0.01646134,2.218929,3.5894719,-19.368263)"
       gradientUnits="userSpaceOnUse"
       id="radialGradient3179"
       xlink:href="#linearGradient4991"
       inkscape:collect="always" />
    <linearGradient
       id="linearGradient4991">
      <stop
         style="stop-color:#31cf29;stop-opacity:1;"
         offset="0"
         id="stop4993" />
      <stop
         style="stop-color:#ffffff;stop-opacity:0;"
         offset="1"
         id="stop4995" />
    </linearGradient>
    <radialGradient
       r="19.0625"
       fy="6.4576745"
       fx="23.447077"
       cy="6.4576745"
       cx="23.447077"
       gradientTransform="matrix(-2.1152229,-0.01671082,-0.01646134,2.218929,3.5894719,-19.368263)"
       gradientUnits="userSpaceOnUse"
       id="radialGradient3212"
       xlink:href="#linearGradient4991"
       inkscape:collect="always" />
    <linearGradient
       inkscape:collect="always"
       xlink:href="#aigrd1"
       id="linearGradient3206"
       gradientUnits="userSpaceOnUse"
       gradientTransform="matrix(0.200685,0,0,0.200685,-19.167337,-14.432734)"
       x1="99.777298"
       y1="15.4238"
       x2="153.0005"
       y2="248.6311" />
    <linearGradient
       id="aigrd1"
       gradientUnits="userSpaceOnUse"
       x1="99.777298"
       y1="15.4238"
       x2="153.0005"
       y2="248.6311">
      <stop
         offset="0"
         style="stop-color:#184375"
         id="stop53300" />
      <stop
         offset="1"
         style="stop-color:#C8BDDC"
         id="stop53302" />
    </linearGradient>
  </defs>
  <sodipodi:namedview
     stroke="#3465a4"
     fill="#729fcf"
     id="base"
     pagecolor="#ffffff"
     bordercolor="#666666"
     borderopacity="0.25490196"
     inkscape:pageopacity="0.0"
     inkscape:pageshadow="2"
     inkscape:zoom="8"
     inkscape:cx="24.408571"
     inkscape:cy="21.844423"
     inkscape:current-layer="layer1"
     showgrid="false"
     inkscape:grid-bbox="true"
     inkscape:document-units="px"
     inkscape:showpageshadow="false"
     inkscape:window-width="1366"
     inkscape:window-height="709"
     inkscape:window-x="0"
     inkscape:window-y="27"
     inkscape:window-maximized="1" />
  <metadata
     id="metadata4">
    <rdf:RDF>
      <cc:Work
         rdf:about="">
        <dc:format>image/svg+xml</dc:format>
        <dc:type
           rdf:resource="http://purl.org/dc/dcmitype/StillImage" />
        <dc:creator>
          <cc:Agent>
            <dc:title>Jakub Steiner</dc:title>
          </cc:Agent>
        </dc:creator>
        <dc:source>http://jimmac.musichall.cz</dc:source>
        <cc:license
           rdf:resource="http://creativecommons.org/licenses/publicdomain/" />
        <dc:title></dc:title>
        <dc:subject>
          <rdf:Bag>
            <rdf:li>accessibility</rdf:li>
            <rdf:li>assist</rdf:li>
          </rdf:Bag>
        </dc:subject>
      </cc:Work>
      <cc:License
         rdf:about="http://creativecommons.org/licenses/publicdomain/">
        <cc:permits
           rdf:resource="http://creativecommons.org/ns#Reproduction" />
        <cc:permits
           rdf:resource="http://creativecommons.org/ns#Distribution" />
        <cc:permits
           rdf:resource="http://creativecommons.org/ns#DerivativeWorks" />
      </cc:License>
    </rdf:RDF>
  </metadata>
  <g
     id="layer1"
     inkscape:label="Layer 1"
     inkscape:groupmode="layer">
    <g
       id="g3174"
       transform="matrix(0.90858609,0,0,0.90858609,2.204834,4.6112869)">
      <rect
         style="opacity:0.40206185;color:#000000;fill:url(#linearGradient3183);fill-opacity:1;fill-rule:nonzero;stroke:none;stroke-width:1;marker:none;visibility:visible;display:inline;overflow:visible"
         id="rect6709"
         width="30.798712"
         height="11.219595"
         x="9.9929657"
         y="36.489632" />
      <path
         style="opacity:0.40206185;color:#000000;fill:url(#radialGradient3185);fill-opacity:1;fill-rule:nonzero;stroke:none;stroke-width:1;marker:none;visibility:visible;display:inline;overflow:visible"
         d="m 40.791677,36.490018 c 0,0 0,11.218976 0,11.218976 3.284734,0.02112 7.940889,-2.513604 7.940887,-5.61021 0,-3.096608 -3.665516,-5.608766 -7.940887,-5.608766 z"
         id="path6711"
         sodipodi:nodetypes="cccc"
         inkscape:connector-curvature="0" />
      <path
         sodipodi:nodetypes="cccc"
         id="path6713"
         d="m 9.9929659,36.490018 c 0,0 0,11.218976 0,11.218976 -3.284735,0.02112 -7.9408887,-2.513604 -7.9408887,-5.61021 0,-3.096608 3.6655158,-5.608766 7.9408887,-5.608766 z"
         style="opacity:0.40206185;color:#000000;fill:url(#radialGradient3187);fill-opacity:1;fill-rule:nonzero;stroke:none;stroke-width:1;marker:none;visibility:visible;display:inline;overflow:visible"
         inkscape:connector-curvature="0" />
      <rect
         style="color:#000000;fill:url(#radialGradient3189);fill-opacity:1;fill-rule:evenodd;stroke:#3465a4;stroke-width:1;stroke-linecap:butt;stroke-linejoin:bevel;stroke-miterlimit:10;stroke-opacity:1;stroke-dasharray:none;stroke-dashoffset:0;marker:none;visibility:visible;display:inline;overflow:visible"
         id="rect11518-3"
         width="40.061924"
         height="40.061924"
         x="4.4690399"
         y="2.469038"
         rx="5.454824"
         ry="5.454824" />
      <rect
         ry="3.9067502"
         rx="3.9067502"
         y="3.9497128"
         x="5.9497147"
         height="37.100636"
         width="37.100636"
         id="rect11528-67"
         style="color:#000000;fill:none;stroke:#ffffff;stroke-width:2.00000215;stroke-linecap:butt;stroke-linejoin:bevel;stroke-miterlimit:10;stroke-opacity:1;stroke-dasharray:none;stroke-dashoffset:0;marker:none;visibility:visible;display:inline;overflow:visible" />
      <text
         xml:space="preserve"
         style="font-size:31.7610817px;font-style:normal;font-variant:normal;font-weight:bold;font-stretch:normal;line-height:125%;letter-spacing:0px;word-spacing:0px;fill:#ffffff;fill-opacity:1;stroke:none;display:inline;font-family:Serif;-inkscape-font-specification:Serif Bold"
         x="24.645067"
         y="33.457794"
         id="text3110-2"
         sodipodi:linespacing="125%"
         transform="scale(0.98966444,1.0104435)"><tspan
           sodipodi:role="line"
           x="24.645067"
           y="33.457794"
           style="font-style:normal;font-variant:normal;font-weight:bold;font-stretch:normal;text-align:center;text-anchor:middle;fill:#ffffff;font-family:Serif;-inkscape-font-specification:Serif Bold"
           id="tspan3114-2">Θ</tspan></text>
    </g>
    <g
       style="display:inline"
       id="g3199"
       transform="matrix(0.42948301,0,0,0.42948301,12.516877,5.583171)">
      <path
         id="path3243"
         d="m 57.867945,-12.434478 c -0.47317,0.03238 -0.93308,0.105662 -1.39785,0.158847 l -0.0318,0 -1.11193,6.067951 c -1.81235,0.412737 -3.51741,1.11319 -5.051328,2.065009 L 45.287246,-7.73261 c -1.348332,1.046804 -2.575301,2.267667 -3.653479,3.589939 l 3.462862,5.05132997 C 44.045207,2.515442 43.254546,4.350146 42.809234,6.277684 c -7.6e-5,0.0091 -6.2e-5,0.03018 0,0.03177 l -6.036181,0.95308 c -0.110357,0.901369 -0.158847,1.832904 -0.158847,2.763936 0,0.761753 0.02103,1.513329 0.09531,2.255625 l 6.036182,1.080159 c 0.429297,2.096161 1.244809,4.053785 2.382703,5.782026 l -3.58994,4.924254 c 1.028135,1.276384 2.215105,2.43848 3.494632,3.462861 l 5.0831,-3.494631 c 1.776474,1.133244 3.759544,1.927892 5.909104,2.319165 l 0.95308,6.004411 c 0.67726,0.06165 1.37178,0.06354 2.06501,0.06354 0.97869,-10e-7 1.91352,-0.03709 2.85924,-0.158847 l 1.1437,-6.131489 c 2.04093,-0.507904 3.95818,-1.388998 5.62318,-2.573319 l 4.89248,3.55817 c 1.26877,-1.079445 2.42899,-2.320188 3.4311,-3.653479 l -3.55817,-5.146638 c 0.9636,-1.664197 1.6313,-3.500366 1.9697,-5.464333 l 6.00441,-0.953081 c 0.0527,-0.62659 0.0635,-1.234265 0.0635,-1.874393 0,-1.1124 -0.12929,-2.203101 -0.28592,-3.272246 l -6.09972,-1.111928 c -0.47801,-1.76508 -1.26232,-3.41188 -2.25563,-4.89248403 L 76.421197,-4.17444 c -1.11277,-1.360855 -2.38212,-2.617981 -3.78056,-3.685248 l -5.17841,3.55817 c -1.48832,-0.880227 -3.08997,-1.555614 -4.82894,-1.937932 l -0.95308,-6.036181 c -0.86748,-0.102044 -1.7421,-0.158847 -2.63686,-0.158847 -0.24183,0 -0.49071,-0.0076 -0.7307,0 -0.11699,0.0037 -0.23277,-0.0068 -0.34946,0 -0.0316,0.0018 -0.0638,-0.0022 -0.0953,0 z m 0.82601,15.439916 c 0.11606,-0.0059 0.23194,0 0.34946,0 3.76061,0 6.83042,3.06981 6.83042,6.830416 0,3.760605 -3.06981,6.798646 -6.83042,6.798646 -3.7606,1e-6 -6.79865,-3.038041 -6.79865,-6.798646 10e-6,-3.643086 2.85122,-6.647839 6.44919,-6.830416 z"
         style="color:#000000;fill:url(#linearGradient3206);fill-opacity:1;fill-rule:nonzero;stroke:#3f4561;stroke-width:1;stroke-linecap:round;stroke-linejoin:round;stroke-miterlimit:4;stroke-opacity:1;stroke-dasharray:none;stroke-dashoffset:0;marker:none;visibility:visible;display:inline;overflow:visible"
         inkscape:r_cx="true"
         inkscape:r_cy="true"
         inkscape:connector-curvature="0" />
      <path
         transform="matrix(0.616598,0,0,0.616598,44.550443,-4.842273)"
         d="m 36.239223,23.781593 c 0,7.029438 -5.698484,12.727923 -12.727922,12.727923 -7.029437,0 -12.727922,-5.698485 -12.727922,-12.727923 0,-7.029437 5.698485,-12.727922 12.727922,-12.727922 7.029438,0 12.727922,5.698485 12.727922,12.727922 z"
         sodipodi:ry="12.727922"
         sodipodi:rx="12.727922"
         sodipodi:cy="23.781593"
         sodipodi:cx="23.511301"
         id="path3283"
         style="opacity:0.64772728;color:#000000;fill:none;stroke:#ffffff;stroke-width:1.62180054;stroke-linecap:butt;stroke-linejoin:miter;stroke-miterlimit:4;stroke-opacity:1;stroke-dasharray:none;stroke-dashoffset:0;marker:none;visibility:visible;display:inline;overflow:visible"
         sodipodi:type="arc"
         inkscape:r_cx="true"
         inkscape:r_cy="true" />
      <path
         sodipodi:nodetypes="ccccccccccccccccccccccccccccccccc"
         style="opacity:0.34659089;color:#000000;fill:none;stroke:#ffffff;stroke-width:0.99999923;stroke-linecap:butt;stroke-linejoin:miter;stroke-miterlimit:4;stroke-opacity:1;stroke-dasharray:none;stroke-dashoffset:0;marker:none;visibility:visible;display:inline;overflow:visible"
         d="m 57.164235,-11.23348 -0.89279,5.875057 c -1.69877,0.38687 -4.82358,1.570079 -6.261365,2.462246 l -4.749682,-3.545144 c -1.26383,0.981199 -1.350501,1.047739 -2.361108,2.287142 l 3.434196,5.09321897 C 45.34796,2.445123 44.164219,5.129034 43.739201,7.046982 c 0,0 -6.01779,1.014425 -6.01779,1.014425 -0.103441,0.844879 -0.05373,2.653173 0.01589,3.348948 l 5.748217,1.035517 c 0.402393,1.96479 1.908227,5.127412 2.974807,6.747341 l -3.635002,4.802558 c 0.963699,1.196391 1.156572,1.30587 2.355908,2.266051 l 4.860631,-3.561037 c 1.665141,1.062221 4.970291,2.354376 6.985131,2.721127 l 0.79773,5.801092 c 0.63481,0.05778 2.38853,0.219875 3.27498,0.105749 l 0.89278,-6.03888 c 1.91302,-0.476072 5.21848,-1.832925 6.77913,-2.943023 l 4.85543,3.50816 c 1.18926,-1.011792 1.19991,-1.164249 2.13921,-2.41398 l -3.59802,-5.114311 c 0.90322,-1.5599 2.07109,-4.610599 2.38829,-6.45148 l 5.89094,-0.977443 c 0.0494,-0.58732 0.0518,-2.225166 -0.0951,-3.227305 l -6.00189,-1.035517 c -0.44805,-1.654459 -1.98567,-4.635769 -2.91673,-6.02358003 l 3.81471,-4.80255597 c -1.04302,-1.275567 -1.43083,-1.450585 -2.74162,-2.450964 l -5.02446,3.598018 c -1.39505,-0.825061 -4.1769,-2.082798 -5.80688,-2.441155 l -0.88758,-5.748217 c -0.81312,-0.09565 -3.15904,-0.05317 -3.62372,0 z"
         id="path3285"
         inkscape:r_cx="true"
         inkscape:r_cy="true"
         inkscape:connector-curvature="0" />
      <path
         sodipodi:nodetypes="cccccccccsccccccccccccccccccccsccccc"
         inkscape:r_cy="true"
         inkscape:r_cx="true"
         id="path3767"
         d="m 45.271326,-7.084882 c -1.348334,1.046804 -1.937256,1.674857 -3.015434,2.997129 L 45.65835,0.87720497 C 44.606931,2.475807 43.500051,5.044166 43.310809,6.605758 c 0,0 -6.0625,1.044194 -6.0625,1.044194 -0.06897,0.563356 -0.173636,1.852903 -0.173636,1.852903 l 0.176777,1.5625 c 0.42773,0.08833 0.840155,0.170515 1.28125,0.21875 l 0.5,-1.53125 c 0.344041,0.02848 0.679653,0.0625 1.03125,0.0625 0.351208,0 0.718458,-0.03383 1.0625,-0.0625 l 0.46875,1.53125 c 0.441288,-0.04824 0.884772,-0.130415 1.3125,-0.21875 l 0,-1.5625 c 0.685757,-0.159623 1.332001,-0.387758 1.96875,-0.65625 l 0.9375,1.28125 c 0.402351,-0.182094 0.775596,-0.375819 1.15625,-0.59375 l -0.5,-1.5 c 0.597233,-0.36225 1.161752,-0.795347 1.6875,-1.25 l 1.28125,0.9375 c 0.325635,-0.29658 0.641113,-0.611862 0.9375,-0.9375 l -0.9375,-1.25 c 0.454846,-0.525748 0.8565,-1.089882 1.21875,-1.6875 l 1.500005,0.46875 c 0.21793,-0.380847 0.44329,-0.754094 0.625,-1.15625 l -1.281255,-0.9375 c 0.268495,-0.636749 0.464985,-1.28299203 0.625005,-1.96875003 l 1.59375,0 c 0.0883,-0.427727 0.13945,-0.871212 0.1875,-1.31249997 l -1.5,-0.46875 c 0.0289,-0.343848 0.0625,-0.711097 0.0625,-1.0625 -1e-5,-0.351402 -0.034,-0.687013 -0.0625,-1.031249 l 1.5,-0.46875 c -0.0456,-0.419887 -0.1056,-0.841999 -0.1875,-1.25 -1.14743,0.399301 -2.552665,1.153119 -3.568517,1.783471 l -4.880362,-3.527459 z"
         style="opacity:0.5;color:#000000;fill:#ffffff;fill-opacity:1;fill-rule:nonzero;stroke:none;stroke-width:1;marker:none;visibility:visible;display:inline;overflow:visible"
         inkscape:connector-curvature="0" />
      <path
         inkscape:r_cy="true"
         inkscape:r_cx="true"
         id="path3770"
         d="m 72.405065,3.835806 c -0.38378,0.181376 -0.74664,0.385755 -1.11341,0.595541 l 0.56965,1.734841 c -0.69709,0.4223 -1.35473,0.919689 -1.96787,1.450015 l -1.47591,-1.087512 c -0.38009,0.345899 -0.74177,0.707584 -1.08751,1.087512 l 1.08751,1.475908 c -0.53033,0.613312 -1.02755,1.270943 -1.45002,1.967878 l -0.54375,-0.181252 c -0.0477,0.700283 -0.23638,1.361485 -0.51787,1.967878 l 0.10358,0.07768 c -0.31316,0.74268 -0.56455,1.530398 -0.7509,2.330382 l -1.47591,0 c -0.13629,0.08545 -0.27056,0.18506 -0.41429,0.258931 -0.0784,0.415267 -0.13492,0.817326 -0.18125,1.242871 l 1.76073,0.569648 c -0.0334,0.401276 -0.0518,0.807195 -0.0518,1.216978 0,0.409941 0.0184,0.815701 0.0518,1.216977 l -1.76073,0.569648 c 0.056,0.514755 0.12999,1.02867 0.23303,1.527695 l 1.83842,-0.02589 c 0.12811,0.549987 0.30306,1.107439 0.49197,1.631267 0.74491,-0.28728 1.47383,-0.630185 2.14912,-1.035725 -0.41158,-1.216041 -0.64732,-2.529108 -0.64732,-3.883969 0,-5.197933 3.29238,-9.636655 7.8974,-11.341191 l -1.08751,-0.181253 c -0.22279,-0.822662 -0.51132,-1.628591 -0.88037,-2.382167 -0.0108,-0.02216 -0.0149,-0.05558 -0.0259,-0.07768 l -0.0518,-0.05179 -0.69911,-0.673221 z"
         style="opacity:0.5;color:#000000;fill:#ffffff;fill-opacity:1;fill-rule:nonzero;stroke:none;stroke-width:1;marker:none;visibility:visible;display:inline;overflow:visible"
         inkscape:connector-curvature="0" />
    </g>
  </g>
</svg>
