<?xml version="1.0" encoding="UTF-8" standalone="no"?>
<!-- Created with Inkscape (http://www.inkscape.org/) -->

<svg
   xmlns:dc="http://purl.org/dc/elements/1.1/"
   xmlns:cc="http://creativecommons.org/ns#"
   xmlns:rdf="http://www.w3.org/1999/02/22-rdf-syntax-ns#"
   xmlns:svg="http://www.w3.org/2000/svg"
   xmlns="http://www.w3.org/2000/svg"
   xmlns:xlink="http://www.w3.org/1999/xlink"
   xmlns:sodipodi="http://sodipodi.sourceforge.net/DTD/sodipodi-0.dtd"
   xmlns:inkscape="http://www.inkscape.org/namespaces/inkscape"
   width="1330.1843"
   height="406.6319"
   id="svg5496"
   version="1.1"
   inkscape:version="0.48.3.1 r9886"
   sodipodi:docname="kitanda_logo-NEW.svg">
  <defs
     id="defs5498">
    <linearGradient
       id="linearGradient5504">
      <stop
         style="stop-color:#460032;stop-opacity:1;"
         offset="0"
         id="stop5506" />
      <stop
         id="stop5512"
         offset="1"
         style="stop-color:#460032;stop-opacity:0.66666669;" />
    </linearGradient>
    <linearGradient
       inkscape:collect="always"
       xlink:href="#linearGradient5504"
       id="linearGradient5510"
       x1="810.27545"
       y1="337.02417"
       x2="822.04016"
       y2="847.96045"
       gradientUnits="userSpaceOnUse"
       gradientTransform="matrix(1.0000023,0,0,1.0040073,1.1637146,-0.66331307)" />
  </defs>
  <sodipodi:namedview
     id="base"
     pagecolor="#ffffff"
     bordercolor="#666666"
     borderopacity="1.0"
     inkscape:pageopacity="0.0"
     inkscape:pageshadow="2"
     inkscape:zoom="0.51"
     inkscape:cx="666.89146"
     inkscape:cy="134.36086"
     inkscape:current-layer="layer1"
     inkscape:document-units="px"
     showgrid="false"
     inkscape:window-width="1366"
     inkscape:window-height="709"
     inkscape:window-x="0"
     inkscape:window-y="27"
     inkscape:window-maximized="1"
     fit-margin-top="0"
     fit-margin-left="0"
     fit-margin-right="0"
     fit-margin-bottom="0" />
  <metadata
     id="metadata5501">
    <rdf:RDF>
      <cc:Work
         rdf:about="">
        <dc:format>image/svg+xml</dc:format>
        <dc:type
           rdf:resource="http://purl.org/dc/dcmitype/StillImage" />
        <dc:title></dc:title>
      </cc:Work>
    </rdf:RDF>
  </metadata>
  <g
     id="layer1"
     inkscape:label="Layer 1"
     inkscape:groupmode="layer"
     transform="translate(-116.15785,-332.35305)">
    <rect
       style="fill:url(#linearGradient5510);fill-opacity:1;stroke:#550000;stroke-width:1.01968777;stroke-linecap:butt;stroke-linejoin:miter;stroke-miterlimit:4;stroke-opacity:1;stroke-dasharray:none"
       id="rect6015"
       width="1329.1697"
       height="407.23965"
       x="117.83064"
       y="333.53244"
       rx="190.83382"
       ry="203.61983"
       inkscape:export-filename="/Users/joaosantos/Development/kitanda/kitanda/doc/images/kitanda_logo/kitanda_logo_320_98.png"
       inkscape:export-xdpi="21.65"
       inkscape:export-ydpi="21.65" />
    <text
       xml:space="preserve"
       style="font-size:139.93904114000000050px;font-style:normal;font-variant:normal;font-weight:bold;font-stretch:normal;line-height:125%;letter-spacing:0px;word-spacing:0px;fill:#f7f1f1;fill-opacity:1;stroke:none;font-family:Arial;-inkscape-font-specification:Arial Bold"
       x="305.09106"
       y="621.23828"
       id="text6017"
       sodipodi:linespacing="125%"
       transform="scale(1.0004357,0.99956449)"><tspan
         sodipodi:role="line"
         id="tspan6019"
         x="305.09106"
         y="621.23828"
         style="font-size:279.87808228000000099px;fill:#f7f1f1;fill-opacity:1">kitanda</tspan></text>
    <flowRoot
       xml:space="preserve"
       id="flowRoot2993"
       style="fill:black;stroke:none;stroke-opacity:1;stroke-width:1px;stroke-linejoin:miter;stroke-linecap:butt;fill-opacity:1;font-family:Sans;font-style:normal;font-weight:normal;font-size:40px;line-height:125%;letter-spacing:0px;word-spacing:0px"><flowRegion
         id="flowRegion2995"><rect
           id="rect2997"
           width="47.058823"
           height="127.45098"
           x="317.64706"
           y="-203.17203" /></flowRegion><flowPara
         id="flowPara2999"></flowPara></flowRoot>    <path
       style="opacity:0.90201637;fill:#00ffff;fill-opacity:0;stroke:#8e8989;stroke-width:12.59607792;stroke-miterlimit:4;stroke-opacity:0;stroke-dasharray:none"
       d="m 1096.97,882.8135 c -55.8173,-7.16231 -97.59068,-21.7976 -202.5015,-70.94627 -61.0281,-28.59046 -75.69947,-32.19424 -117.17873,-28.78298 -53.60256,4.40828 -77.46915,10.40468 -142.27401,35.74586 -82.69512,32.33696 -151.9055,53.18104 -187.93434,56.60012 -49.76635,4.72276 -140.91705,-4.03014 -205.20292,-19.70492 -34.05743,-8.30422 -52.11272,-14.56112 -76.47059,-26.5002 -33.8155,-16.57474 -50,-34.02696 -50,-53.91644 0,-14.47938 17.18994,-53.10477 35.27957,-79.27234 24.14814,-34.93152 57.44908,-57.94098 106.41055,-73.5249 l 19.14109,-6.09242 496.5846,0 c 495.70268,0 496.61058,0.007 511.25108,4.04779 19.0575,5.25968 47.4501,18.75666 67.4119,32.0456 60.3546,40.17922 88.8697,97.74577 66.9471,135.15384 -10.4152,17.77215 -36.5689,38.43901 -65.2235,51.54001 -67.7779,30.98841 -191.0677,51.97 -256.2403,43.60725 l 0,0 z"
       id="path3949"
       inkscape:connector-curvature="0"
       transform="translate(116.15785,332.35305)" />
    <path
       style="opacity:0.90201637;fill:#00ffff;fill-opacity:0;stroke:#8e8989;stroke-width:12.59607792;stroke-miterlimit:4;stroke-opacity:0;stroke-dasharray:none"
       d="m 1096.97,882.8135 c -55.8173,-7.16231 -97.59068,-21.7976 -202.5015,-70.94627 -61.0281,-28.59046 -75.69947,-32.19424 -117.17873,-28.78298 -53.60256,4.40828 -77.46915,10.40468 -142.27401,35.74586 -82.69512,32.33696 -151.9055,53.18104 -187.93434,56.60012 -49.76635,4.72276 -140.91705,-4.03014 -205.20292,-19.70492 -34.05743,-8.30422 -52.11272,-14.56112 -76.47059,-26.5002 -33.8155,-16.57474 -50,-34.02696 -50,-53.91644 0,-14.47938 17.18994,-53.10477 35.27957,-79.27234 24.14814,-34.93152 57.44908,-57.94098 106.41055,-73.5249 l 19.14109,-6.09242 496.5846,0 c 495.70268,0 496.61058,0.007 511.25108,4.04779 19.0575,5.25968 47.4501,18.75666 67.4119,32.0456 60.3546,40.17922 88.8697,97.74577 66.9471,135.15384 -10.4152,17.77215 -36.5689,38.43901 -65.2235,51.54001 -67.7779,30.98841 -191.0677,51.97 -256.2403,43.60725 l 0,0 z"
       id="path3951"
       inkscape:connector-curvature="0"
       transform="translate(116.15785,332.35305)" />
    <path
       style="opacity:0.90201637;fill:#00ffff;fill-opacity:0;stroke:#8e8989;stroke-width:12.59607792;stroke-miterlimit:4;stroke-opacity:0;stroke-dasharray:none"
       d="m 1096.97,882.8135 c -55.8173,-7.16231 -97.59068,-21.7976 -202.5015,-70.94627 -61.0281,-28.59046 -75.69947,-32.19424 -117.17873,-28.78298 -53.60256,4.40828 -77.46915,10.40468 -142.27401,35.74586 -82.69512,32.33696 -151.9055,53.18104 -187.93434,56.60012 -49.76635,4.72276 -140.91705,-4.03014 -205.20292,-19.70492 -34.05743,-8.30422 -52.11272,-14.56112 -76.47059,-26.5002 -33.8155,-16.57474 -50,-34.02696 -50,-53.91644 0,-14.47938 17.18994,-53.10477 35.27957,-79.27234 24.14814,-34.93152 57.44908,-57.94098 106.41055,-73.5249 l 19.14109,-6.09242 496.5846,0 c 495.70268,0 496.61058,0.007 511.25108,4.04779 19.0575,5.25968 47.4501,18.75666 67.4119,32.0456 60.3546,40.17922 88.8697,97.74577 66.9471,135.15384 -10.4152,17.77215 -36.5689,38.43901 -65.2235,51.54001 -67.7779,30.98841 -191.0677,51.97 -256.2403,43.60725 l 0,0 z"
       id="path3953"
       inkscape:connector-curvature="0"
       transform="translate(116.15785,332.35305)" />
    <path
       style="opacity:0.90201637;fill:#00ffff;fill-opacity:0;stroke:#8e8989;stroke-width:12.59607792;stroke-miterlimit:4;stroke-opacity:0;stroke-dasharray:none"
       d="m 1096.97,882.8135 c -55.8173,-7.16231 -97.59068,-21.7976 -202.5015,-70.94627 -61.0281,-28.59046 -75.69947,-32.19424 -117.17873,-28.78298 -53.60256,4.40828 -77.46915,10.40468 -142.27401,35.74586 -82.69512,32.33696 -151.9055,53.18104 -187.93434,56.60012 -49.76635,4.72276 -140.91705,-4.03014 -205.20292,-19.70492 -34.05743,-8.30422 -52.11272,-14.56112 -76.47059,-26.5002 -33.8155,-16.57474 -50,-34.02696 -50,-53.91644 0,-14.47938 17.18994,-53.10477 35.27957,-79.27234 24.14814,-34.93152 57.44908,-57.94098 106.41055,-73.5249 l 19.14109,-6.09242 496.5846,0 c 495.70268,0 496.61058,0.007 511.25108,4.04779 19.0575,5.25968 47.4501,18.75666 67.4119,32.0456 60.3546,40.17922 88.8697,97.74577 66.9471,135.15384 -10.4152,17.77215 -36.5689,38.43901 -65.2235,51.54001 -67.7779,30.98841 -191.0677,51.97 -256.2403,43.60725 l 0,0 z"
       id="path3955"
       inkscape:connector-curvature="0"
       transform="translate(116.15785,332.35305)" />
    <path
       style="opacity:0.90201637;fill:#00ffff;fill-opacity:0;stroke:#8e8989;stroke-width:12.59607792;stroke-miterlimit:4;stroke-opacity:0;stroke-dasharray:none"
       d="m 1096.97,882.8135 c -55.8173,-7.16231 -97.59068,-21.7976 -202.5015,-70.94627 -61.0281,-28.59046 -75.69947,-32.19424 -117.17873,-28.78298 -53.60256,4.40828 -77.46915,10.40468 -142.27401,35.74586 -82.69512,32.33696 -151.9055,53.18104 -187.93434,56.60012 -49.76635,4.72276 -140.91705,-4.03014 -205.20292,-19.70492 -34.05743,-8.30422 -52.11272,-14.56112 -76.47059,-26.5002 -33.8155,-16.57474 -50,-34.02696 -50,-53.91644 0,-14.47938 17.18994,-53.10477 35.27957,-79.27234 24.14814,-34.93152 57.44908,-57.94098 106.41055,-73.5249 l 19.14109,-6.09242 496.5846,0 c 495.70268,0 496.61058,0.007 511.25108,4.04779 19.0575,5.25968 47.4501,18.75666 67.4119,32.0456 60.3546,40.17922 88.8697,97.74577 66.9471,135.15384 -10.4152,17.77215 -36.5689,38.43901 -65.2235,51.54001 -67.7779,30.98841 -191.0677,51.97 -256.2403,43.60725 l 0,0 z"
       id="path3957"
       inkscape:connector-curvature="0"
       transform="translate(116.15785,332.35305)" />
    <path
       style="opacity:0.90201637;fill:#800080;fill-opacity:0;stroke:#8e8989;stroke-width:2.22669315;stroke-miterlimit:4;stroke-opacity:0;stroke-dasharray:none"
       d="m 1163.7531,711.64847 0,-96.53394 51.4351,0 c 50.2521,0 51.5133,0.0161 54.8383,0.70023 40.1084,8.25264 84.4733,32.18465 115.0024,62.03643 28.7154,28.07837 43.0225,57.68791 42.0571,87.03991 -0.1932,5.87176 -0.2594,6.32375 -1.4449,9.86676 -3.4822,10.40616 -9.7002,20.26219 -18.5177,29.35176 l -3.9508,4.07279 -119.7097,0 -119.7098,0 0,-96.53394 z"
       id="path3959"
       inkscape:connector-curvature="0"
       transform="translate(116.15785,332.35305)" />
    <path
       style="opacity:0.90201637;fill:#800080;fill-opacity:0;stroke:#8e8989;stroke-width:2.22669315;stroke-miterlimit:4;stroke-opacity:0;stroke-dasharray:none"
       d="m 1163.7531,711.64847 0,-96.53394 51.4351,0 c 50.2521,0 51.5133,0.0161 54.8383,0.70023 40.1084,8.25264 84.4733,32.18465 115.0024,62.03643 28.7154,28.07837 43.0225,57.68791 42.0571,87.03991 -0.1932,5.87176 -0.2594,6.32375 -1.4449,9.86676 -3.4822,10.40616 -9.7002,20.26219 -18.5177,29.35176 l -3.9508,4.07279 -119.7097,0 -119.7098,0 0,-96.53394 z"
       id="path3961"
       inkscape:connector-curvature="0"
       transform="translate(116.15785,332.35305)" />
    <path
       style="opacity:0.90201637;fill:#800080;fill-opacity:0;stroke:#8e8989;stroke-width:2.22669315;stroke-miterlimit:4;stroke-opacity:0;stroke-dasharray:none"
       d="m 1163.7531,711.64847 0,-96.53394 51.4351,0 c 50.2521,0 51.5133,0.0161 54.8383,0.70023 40.1084,8.25264 84.4733,32.18465 115.0024,62.03643 28.7154,28.07837 43.0225,57.68791 42.0571,87.03991 -0.1932,5.87176 -0.2594,6.32375 -1.4449,9.86676 -3.4822,10.40616 -9.7002,20.26219 -18.5177,29.35176 l -3.9508,4.07279 -119.7097,0 -119.7098,0 0,-96.53394 z"
       id="path3963"
       inkscape:connector-curvature="0"
       transform="translate(116.15785,332.35305)" />
    <path
       style="opacity:0.90201637;fill:#800080;fill-opacity:0;stroke:#8e8989;stroke-width:2.22669315;stroke-miterlimit:4;stroke-opacity:0;stroke-dasharray:none"
       d="m 1163.7531,711.64847 0,-96.53394 51.4351,0 c 50.2521,0 51.5133,0.0161 54.8383,0.70023 40.1084,8.25264 84.4733,32.18465 115.0024,62.03643 28.7154,28.07837 43.0225,57.68791 42.0571,87.03991 -0.1932,5.87176 -0.2594,6.32375 -1.4449,9.86676 -3.4822,10.40616 -9.7002,20.26219 -18.5177,29.35176 l -3.9508,4.07279 -119.7097,0 -119.7098,0 0,-96.53394 z"
       id="path3965"
       inkscape:connector-curvature="0"
       transform="translate(116.15785,332.35305)" />
    <path
       style="opacity:0.90201637;fill:#800080;fill-opacity:0;stroke:#8e8989;stroke-width:2.22669315;stroke-miterlimit:4;stroke-opacity:0;stroke-dasharray:none"
       d="m 1163.7531,711.64847 0,-96.53394 51.4351,0 c 50.2521,0 51.5133,0.0161 54.8383,0.70023 40.1084,8.25264 84.4733,32.18465 115.0024,62.03643 28.7154,28.07837 43.0225,57.68791 42.0571,87.03991 -0.1932,5.87176 -0.2594,6.32375 -1.4449,9.86676 -3.4822,10.40616 -9.7002,20.26219 -18.5177,29.35176 l -3.9508,4.07279 -119.7097,0 -119.7098,0 0,-96.53394 z"
       id="path3967"
       inkscape:connector-curvature="0"
       transform="translate(116.15785,332.35305)" />
    <path
       style="opacity:0.90201637;fill:#800080;fill-opacity:0;stroke:#8e8989;stroke-width:2.22669315;stroke-miterlimit:4;stroke-opacity:0;stroke-dasharray:none"
       d="m 1163.7531,711.64847 0,-96.53394 51.4351,0 c 50.2521,0 51.5133,0.0161 54.8383,0.70023 40.1084,8.25264 84.4733,32.18465 115.0024,62.03643 28.7154,28.07837 43.0225,57.68791 42.0571,87.03991 -0.1932,5.87176 -0.2594,6.32375 -1.4449,9.86676 -3.4822,10.40616 -9.7002,20.26219 -18.5177,29.35176 l -3.9508,4.07279 -119.7097,0 -119.7098,0 0,-96.53394 z"
       id="path3969"
       inkscape:connector-curvature="0"
       transform="translate(116.15785,332.35305)" />
    <path
       style="opacity:0.90201637;fill:#800080;fill-opacity:0;stroke:#8e8989;stroke-width:2.22669315;stroke-miterlimit:4;stroke-opacity:0;stroke-dasharray:none"
       d="m 1163.7531,711.64847 0,-96.53394 51.4351,0 c 50.2521,0 51.5133,0.0161 54.8383,0.70023 40.1084,8.25264 84.4733,32.18465 115.0024,62.03643 28.7154,28.07837 43.0225,57.68791 42.0571,87.03991 -0.1932,5.87176 -0.2594,6.32375 -1.4449,9.86676 -3.4822,10.40616 -9.7002,20.26219 -18.5177,29.35176 l -3.9508,4.07279 -119.7097,0 -119.7098,0 0,-96.53394 z"
       id="path3971"
       inkscape:connector-curvature="0"
       transform="translate(116.15785,332.35305)" />
    <path
       style="opacity:0.90201637;fill:#800080;fill-opacity:0;stroke:#8e8989;stroke-width:17.81354523;stroke-miterlimit:4;stroke-opacity:0;stroke-dasharray:none"
       d="m 1083.7271,880.40121 c -13.7261,-2.11672 -40.807,-8.87809 -60.1796,-15.02526 -32.97452,-10.46325 -49.12556,-17.24531 -133.9281,-56.23841 -52.23209,-24.01686 -58.39995,-25.58685 -99.82684,-25.41021 -57.46785,0.24503 -82.62643,6.49287 -187.17533,46.48287 -50.49346,19.31377 -117.79331,39.72727 -142.97083,43.36614 -49.96647,7.22157 -154.85351,-1.9137 -223.81603,-19.49354 -69.1669,-17.63194 -114.42012,-45.21248 -119.61465,-72.90168 -3.96784,-21.15041 27.31766,-80.97343 58.33314,-111.54257 19.29144,-19.01381 48.19644,-35.29248 82.83389,-46.65025 l 22.18374,-7.27414 497.74771,0.7407 497.7477,0.7407 20.26,7.40204 c 50.938,18.61029 100.3765,58.20642 118.526,94.92948 13.142,26.59098 15.2667,46.05381 6.8324,62.58643 -20.0345,39.27084 -87.3795,72.78304 -180.741,89.9402 -71.9448,13.2214 -111.0544,15.3113 -156.2122,8.3475 l 0,0 z"
       id="path3973"
       inkscape:connector-curvature="0"
       transform="translate(116.15785,332.35305)" />
    <path
       style="opacity:0.90201637;fill:#800080;fill-opacity:0;stroke:#8e8989;stroke-width:17.81354523;stroke-miterlimit:4;stroke-opacity:0;stroke-dasharray:none"
       d="m 1083.7271,880.40121 c -13.7261,-2.11672 -40.807,-8.87809 -60.1796,-15.02526 -32.97452,-10.46325 -49.12556,-17.24531 -133.9281,-56.23841 -52.23209,-24.01686 -58.39995,-25.58685 -99.82684,-25.41021 -57.46785,0.24503 -82.62643,6.49287 -187.17533,46.48287 -50.49346,19.31377 -117.79331,39.72727 -142.97083,43.36614 -49.96647,7.22157 -154.85351,-1.9137 -223.81603,-19.49354 -69.1669,-17.63194 -114.42012,-45.21248 -119.61465,-72.90168 -3.96784,-21.15041 27.31766,-80.97343 58.33314,-111.54257 19.29144,-19.01381 48.19644,-35.29248 82.83389,-46.65025 l 22.18374,-7.27414 497.74771,0.7407 497.7477,0.7407 20.26,7.40204 c 50.938,18.61029 100.3765,58.20642 118.526,94.92948 13.142,26.59098 15.2667,46.05381 6.8324,62.58643 -20.0345,39.27084 -87.3795,72.78304 -180.741,89.9402 -71.9448,13.2214 -111.0544,15.3113 -156.2122,8.3475 l 0,0 z"
       id="path3975"
       inkscape:connector-curvature="0"
       transform="translate(116.15785,332.35305)" />
    <path
       style="opacity:0.90201637;fill:#800080;fill-opacity:0;stroke:#8e8989;stroke-width:17.81354523;stroke-miterlimit:4;stroke-opacity:0;stroke-dasharray:none"
       d="m 1083.7271,880.40121 c -13.7261,-2.11672 -40.807,-8.87809 -60.1796,-15.02526 -32.97452,-10.46325 -49.12556,-17.24531 -133.9281,-56.23841 -52.23209,-24.01686 -58.39995,-25.58685 -99.82684,-25.41021 -57.46785,0.24503 -82.62643,6.49287 -187.17533,46.48287 -50.49346,19.31377 -117.79331,39.72727 -142.97083,43.36614 -49.96647,7.22157 -154.85351,-1.9137 -223.81603,-19.49354 -69.1669,-17.63194 -114.42012,-45.21248 -119.61465,-72.90168 -3.96784,-21.15041 27.31766,-80.97343 58.33314,-111.54257 19.29144,-19.01381 48.19644,-35.29248 82.83389,-46.65025 l 22.18374,-7.27414 497.74771,0.7407 497.7477,0.7407 20.26,7.40204 c 50.938,18.61029 100.3765,58.20642 118.526,94.92948 13.142,26.59098 15.2667,46.05381 6.8324,62.58643 -20.0345,39.27084 -87.3795,72.78304 -180.741,89.9402 -71.9448,13.2214 -111.0544,15.3113 -156.2122,8.3475 l 0,0 z"
       id="path3977"
       inkscape:connector-curvature="0"
       transform="translate(116.15785,332.35305)" />
    <path
       style="opacity:0.90201637;fill:#800080;fill-opacity:0;stroke:#8e8989;stroke-width:17.81354523;stroke-miterlimit:4;stroke-opacity:0;stroke-dasharray:none"
       d="m 1083.7271,880.40121 c -13.7261,-2.11672 -40.807,-8.87809 -60.1796,-15.02526 -32.97452,-10.46325 -49.12556,-17.24531 -133.9281,-56.23841 -52.23209,-24.01686 -58.39995,-25.58685 -99.82684,-25.41021 -57.46785,0.24503 -82.62643,6.49287 -187.17533,46.48287 -50.49346,19.31377 -117.79331,39.72727 -142.97083,43.36614 -49.96647,7.22157 -154.85351,-1.9137 -223.81603,-19.49354 -69.1669,-17.63194 -114.42012,-45.21248 -119.61465,-72.90168 -3.96784,-21.15041 27.31766,-80.97343 58.33314,-111.54257 19.29144,-19.01381 48.19644,-35.29248 82.83389,-46.65025 l 22.18374,-7.27414 497.74771,0.7407 497.7477,0.7407 20.26,7.40204 c 50.938,18.61029 100.3765,58.20642 118.526,94.92948 13.142,26.59098 15.2667,46.05381 6.8324,62.58643 -20.0345,39.27084 -87.3795,72.78304 -180.741,89.9402 -71.9448,13.2214 -111.0544,15.3113 -156.2122,8.3475 l 0,0 z"
       id="path3979"
       inkscape:connector-curvature="0"
       transform="translate(116.15785,332.35305)" />
    <path
       style="opacity:0.90201637;fill:#800080;fill-opacity:0;stroke:#8e8989;stroke-width:17.81354523;stroke-miterlimit:4;stroke-opacity:0;stroke-dasharray:none"
       d="m 1083.7271,880.40121 c -13.7261,-2.11672 -40.807,-8.87809 -60.1796,-15.02526 -32.97452,-10.46325 -49.12556,-17.24531 -133.9281,-56.23841 -52.23209,-24.01686 -58.39995,-25.58685 -99.82684,-25.41021 -57.46785,0.24503 -82.62643,6.49287 -187.17533,46.48287 -50.49346,19.31377 -117.79331,39.72727 -142.97083,43.36614 -49.96647,7.22157 -154.85351,-1.9137 -223.81603,-19.49354 -69.1669,-17.63194 -114.42012,-45.21248 -119.61465,-72.90168 -3.96784,-21.15041 27.31766,-80.97343 58.33314,-111.54257 19.29144,-19.01381 48.19644,-35.29248 82.83389,-46.65025 l 22.18374,-7.27414 497.74771,0.7407 497.7477,0.7407 20.26,7.40204 c 50.938,18.61029 100.3765,58.20642 118.526,94.92948 13.142,26.59098 15.2667,46.05381 6.8324,62.58643 -20.0345,39.27084 -87.3795,72.78304 -180.741,89.9402 -71.9448,13.2214 -111.0544,15.3113 -156.2122,8.3475 l 0,0 z"
       id="path3981"
       inkscape:connector-curvature="0"
       transform="translate(116.15785,332.35305)" />
    <path
       style="opacity:0.90201607;fill:#800080;fill-opacity:0;stroke:#8e8989;stroke-width:17.80578804;stroke-miterlimit:4;stroke-opacity:0;stroke-dasharray:none"
       d="m 575.11456,625.54491 c -4.85934,-3.06298 -10.16264,-8.04731 -11.78511,-11.07629 -1.78076,-3.32447 -2.94994,-25.894 -2.94994,-56.94459 l 0,-51.43737 -9.70539,0 c -9.44952,0 -9.70539,-0.28775 -9.70539,-10.91496 0,-10.54532 0.34115,-10.9441 10.07318,-11.77486 9.5995,-0.81944 10.34928,-1.64157 15.94457,-17.4832 5.64625,-15.98591 6.2701,-16.65629 16.27001,-17.48319 l 10.39863,-0.85989 0,18.17583 0,18.17586 15.25132,0 15.25133,0 0,11.0822 0,11.08221 -15.25133,0 -15.25132,0 0.15651,39.48038 c 0.0908,22.89242 1.5471,43.55463 3.46621,49.17733 3.00597,8.80705 4.3912,9.77511 15.09481,10.54887 11.37474,0.82226 11.78511,1.17836 11.78511,10.22606 0,11.63752 -1.96816,12.85882 -23.16645,14.37545 -13.71793,0.98145 -18.76472,0.1331 -25.87675,-4.34984 l 0,0 z"
       id="path3983"
       inkscape:connector-curvature="0" />
    <path
       style="opacity:0.90201607;fill:#800080;fill-opacity:0;stroke:#8e8989;stroke-width:17.80578804;stroke-miterlimit:4;stroke-opacity:0;stroke-dasharray:none"
       d="m 575.11456,625.54491 c -4.85934,-3.06298 -10.16264,-8.04731 -11.78511,-11.07629 -1.78076,-3.32447 -2.94994,-25.894 -2.94994,-56.94459 l 0,-51.43737 -9.70539,0 c -9.44952,0 -9.70539,-0.28775 -9.70539,-10.91496 0,-10.54532 0.34115,-10.9441 10.07318,-11.77486 9.5995,-0.81944 10.34928,-1.64157 15.94457,-17.4832 5.64625,-15.98591 6.2701,-16.65629 16.27001,-17.48319 l 10.39863,-0.85989 0,18.17583 0,18.17586 15.25132,0 15.25133,0 0,11.0822 0,11.08221 -15.25133,0 -15.25132,0 0.15651,39.48038 c 0.0908,22.89242 1.5471,43.55463 3.46621,49.17733 3.00597,8.80705 4.3912,9.77511 15.09481,10.54887 11.37474,0.82226 11.78511,1.17836 11.78511,10.22606 0,11.63752 -1.96816,12.85882 -23.16645,14.37545 -13.71793,0.98145 -18.76472,0.1331 -25.87675,-4.34984 l 0,0 z"
       id="path3985"
       inkscape:connector-curvature="0" />
    <path
       style="opacity:0.90201637;fill:#800080;fill-opacity:0;stroke:#8e8989;stroke-width:17.81354523;stroke-miterlimit:4;stroke-opacity:0;stroke-dasharray:none"
       d="m 1083.7271,880.40121 c -13.7261,-2.11672 -40.807,-8.87809 -60.1796,-15.02526 -32.97452,-10.46325 -49.12556,-17.24531 -133.9281,-56.23841 -52.23209,-24.01686 -58.39995,-25.58685 -99.82684,-25.41021 -57.46785,0.24503 -82.62643,6.49287 -187.17533,46.48287 -50.49346,19.31377 -117.79331,39.72727 -142.97083,43.36614 -49.96647,7.22157 -154.85351,-1.9137 -223.81603,-19.49354 -69.1669,-17.63194 -114.42012,-45.21248 -119.61465,-72.90168 -3.96784,-21.15041 27.31766,-80.97343 58.33314,-111.54257 19.29144,-19.01381 48.19644,-35.29248 82.83389,-46.65025 l 22.18374,-7.27414 497.74771,0.7407 497.7477,0.7407 20.26,7.40204 c 50.938,18.61029 100.3765,58.20642 118.526,94.92948 13.142,26.59098 15.2667,46.05381 6.8324,62.58643 -20.0345,39.27084 -87.3795,72.78304 -180.741,89.9402 -71.9448,13.2214 -111.0544,15.3113 -156.2122,8.3475 l 0,0 z"
       id="path3987"
       inkscape:connector-curvature="0"
       transform="translate(116.15785,332.35305)" />
    <path
       style="opacity:0.23456792;fill:#ffffff;fill-opacity:1;stroke:#ff1919;stroke-width:12.59607792;stroke-miterlimit:4;stroke-opacity:0;stroke-dasharray:none"
       d="m 746.73586,613.71016 c -11.32353,-0.30169 -43.97058,-1.8693 -72.54902,-3.48359 C 449.14312,597.51469 265.79734,557.3913 182.75244,502.68106 165.58588,491.37168 145.87839,471.01961 140.6513,459.20292 l -6.44429,-9.02754 8.49893,-12.92416 c 11.12442,-16.91669 31.99429,-71.97897 119.7162,-98.9997 l 14.70588,-4.52981 493.13726,-0.58397 c 356.40942,-0.42205 497.42472,0.0251 508.60072,1.6127 60.1415,8.54343 117.4689,48.53014 143.401,100.02427 6.2664,12.44349 14.665,35.43176 14.665,40.14052 0,2.90132 -21.8462,24.37341 -32.353,31.79893 -105.4194,74.50386 -354.8262,115.06906 -657.84314,106.996 z"
       id="path4041"
       inkscape:connector-curvature="0"
       sodipodi:nodetypes="sssscsscssssss" />
  </g>
</svg>
